<svg xmlns="http://www.w3.org/2000/svg" xmlns:xlink="http://www.w3.org/1999/xlink" width="202.3" height="103.04" viewBox="0 0 202.3 103.04"><defs><clipPath id="clip-path"><rect id="Rectangle_583" data-name="Rectangle 583" width="202.3" height="103.04" fill="none"></rect></clipPath></defs><g id="Artwork_14" data-name="Artwork 14" transform="translate(101.15 51.52)"><g id="Group_805" data-name="Group 805" transform="translate(-101.15 -51.52)"><path id="Path_3524" data-name="Path 3524" d="M95.8,22.1V16.5H89.5v5.6H86.7V8.8h2.8V14h6.3V8.8h2.9V22.1Z" fill="#fff"></path><g id="Group_804" data-name="Group 804" clip-path="url(#clip-path)"><path id="Path_3525" data-name="Path 3525" d="M100.6,15.4a7,7,0,0,1,13.9,0,7,7,0,0,1-13.9,0m11,0c0-2.5-1.6-4.4-4-4.4a4.132,4.132,0,0,0-4.1,4.4,4.1,4.1,0,0,0,4.1,4.4c2.5,0,4-1.9,4-4.4" fill="#fff"></path><path id="Path_3526" data-name="Path 3526" d="M128.2,22.1V12.5l-3.8,9.6h-1.2l-3.8-9.6v9.6h-2.8V8.8h4l3.2,8.3L127,8.8h4V22.1Z" fill="#fff"></path><path id="Path_3527" data-name="Path 3527" d="M133.7,22.1V8.8h9.4v2.5h-6.6v2.8H143v2.5h-6.5v3h6.6v2.5Z" fill="#fff"></path><path id="Path_3528" data-name="Path 3528" d="M94.2,42.1l-2.6-4.7H89.5v4.7H86.7V28.8h6.2a4.2,4.2,0,0,1,4.5,4.3,3.9,3.9,0,0,1-2.9,4l3,5.1Zm.3-9.1a1.8,1.8,0,0,0-2-1.8h-3v3.6h3a1.8,1.8,0,0,0,2-1.8" fill="#fff"></path><path id="Path_3529" data-name="Path 3529" d="M99.5,42.1V28.8H109v2.5h-6.6v2.8h6.4v2.5h-6.4v3H109v2.5Z" fill="#fff"></path><path id="Path_3530" data-name="Path 3530" d="M111.2,42.1V28.8h6.2a4.3,4.3,0,1,1,0,8.6H114v4.8Zm7.8-9a1.8,1.8,0,0,0-2-1.8h-3v3.6h3a1.8,1.8,0,0,0,2-1.8" fill="#fff"></path><path id="Path_3531" data-name="Path 3531" d="M131.4,42.1l-.8-2.3h-5.7l-.8,2.3h-3.2L126,28.8h3.6l5.1,13.3Zm-3.7-10.5-2.1,5.7h4.2Z" fill="#fff"></path><rect id="Rectangle_581" data-name="Rectangle 581" width="2.8" height="13.34" transform="translate(135.9 28.8)" fill="#fff"></rect><path id="Path_3532" data-name="Path 3532" d="M148.9,42.1l-2.6-4.7h-2.1v4.7h-2.8V28.8h6.2a4.2,4.2,0,0,1,4.5,4.3,3.9,3.9,0,0,1-2.9,4l3,5.1Zm.3-9.1a1.8,1.8,0,0,0-2-1.8h-3v3.6h3a1.8,1.8,0,0,0,2-1.8" fill="#fff"></path><path id="Path_3533" data-name="Path 3533" d="M85.7,60.2,87.3,58a5.9,5.9,0,0,0,4.2,1.8c1.6,0,2.3-.7,2.3-1.5,0-2.3-7.7-.7-7.7-5.7,0-2.2,1.9-4.1,5.1-4.1a7.4,7.4,0,0,1,5.2,1.9l-1.6,2.1A5.7,5.7,0,0,0,91,51.1c-1.2,0-1.9.5-1.9,1.3s7.7.7,7.7,5.7c0,2.4-1.8,4.3-5.3,4.3a7.7,7.7,0,0,1-5.7-2.1" fill="#fff"></path><path id="Path_3534" data-name="Path 3534" d="M98.7,62.1V48.8h9.4v2.5h-6.6v2.8H108v2.5h-6.5v3h6.6v2.5Z" fill="#fff"></path><path id="Path_3535" data-name="Path 3535" d="M117.9,62.1l-2.6-4.7h-2.1v4.7h-2.8V48.8h6.2a4.2,4.2,0,0,1,4.5,4.3,3.9,3.9,0,0,1-2.9,4l3,5.1Zm.3-9.1a1.8,1.8,0,0,0-2-1.8h-3v3.6h3a1.8,1.8,0,0,0,2-1.8" fill="#fff"></path><path id="Path_3536" data-name="Path 3536" d="M126.7,62.1l-5.1-13.3h3.2L128.5,59l3.7-10.2h3.2l-5.1,13.3Z" fill="#fff"></path><rect id="Rectangle_582" data-name="Rectangle 582" width="2.8" height="13.34" transform="translate(136.7 48.8)" fill="#fff"></rect><path id="Path_3537" data-name="Path 3537" d="M141.5,55.4a6.8,6.8,0,0,1,7.1-6.9,6.1,6.1,0,0,1,5.6,3.3L151.7,53a3.6,3.6,0,0,0-3.1-1.9,4.4,4.4,0,0,0,0,8.8,3.6,3.6,0,0,0,3.1-1.9l2.4,1.2a6.1,6.1,0,0,1-5.6,3.3,6.8,6.8,0,0,1-7.1-6.9" fill="#fff"></path><path id="Path_3538" data-name="Path 3538" d="M155.9,62.1V48.8h9.4v2.5h-6.6v2.8h6.5v2.5h-6.5v3h6.6v2.5Z" fill="#fff"></path><path id="Path_3539" data-name="Path 3539" d="M166.6,60.2l1.6-2.2a5.9,5.9,0,0,0,4.2,1.8c1.6,0,2.3-.7,2.3-1.5,0-2.3-7.7-.7-7.7-5.7,0-2.2,1.9-4.1,5.1-4.1a7.4,7.4,0,0,1,5.2,1.9l-1.6,2.1a5.7,5.7,0,0,0-3.9-1.5c-1.2,0-1.9.5-1.9,1.3s7.7.7,7.7,5.7c0,2.4-1.8,4.3-5.3,4.3a7.7,7.7,0,0,1-5.7-2.1" fill="#fff"></path><path id="Path_3540" data-name="Path 3540" d="M91,84.5H89.8l-2.3-3.3h-.4v3.3h-1V76.6h1.2a4.2,4.2,0,0,1,2.1.4,2.255,2.255,0,0,1-.9,4.1Zm-3.9-4.2h.3c1,0,2.1-.2,2.1-1.4s-1.2-1.4-2.2-1.4H87Z" fill="#fff"></path><path id="Path_3541" data-name="Path 3541" d="M95,76.6h4.2v.9H95.9v2.2h3.2v.9H95.9v3h3.3v.9H95Z" fill="#fff"></path><path id="Path_3542" data-name="Path 3542" d="M107.1,78.1a1.4,1.4,0,0,0-1.3-.7,1.2,1.2,0,0,0-1.3,1.1c0,.6.6.9,1.1,1.1l.6.2a2.556,2.556,0,0,1,2,2.4,2.4,2.4,0,0,1-2.5,2.5,2.5,2.5,0,0,1-2.4-2.2l1-.2a1.5,1.5,0,0,0,3,0c0-.8-.7-1.2-1.4-1.5l-.5-.2c-.9-.4-1.7-.9-1.7-2a2.2,2.2,0,0,1,2.3-2,2.3,2.3,0,0,1,2,1.2Z" fill="#fff"></path><path id="Path_3543" data-name="Path 3543" d="M120.1,80.6a4.15,4.15,0,1,1-4.15-4.15,4.15,4.15,0,0,1,4.15,4.15m-1,0a3.2,3.2,0,1,0-6.3,0,3.2,3.2,0,1,0,6.3,0" fill="#fff"></path><path id="Path_3544" data-name="Path 3544" d="M125.1,76.6v4.7c0,1.3.4,2.5,1.9,2.5s1.9-1.2,1.9-2.5V76.6h1v5a2.9,2.9,0,1,1-5.8,0v-5Z" fill="#fff"></path><path id="Path_3545" data-name="Path 3545" d="M139.3,84.5h-1.2l-2.3-3.3h-.4v3.3h-1V76.6h1.2a4.2,4.2,0,0,1,2.1.4,2.255,2.255,0,0,1-.9,4.1Zm-3.9-4.2h.3c1,0,2.1-.2,2.1-1.4s-1.2-1.4-2.2-1.4h-.3Z" fill="#fff"></path><path id="Path_3546" data-name="Path 3546" d="M149,78.1a3.246,3.246,0,1,0,0,4.9v1.2a4.3,4.3,0,0,1-2.1.6,4.1,4.1,0,0,1-4.1-4.1,4.2,4.2,0,0,1,4.2-4.2,3.8,3.8,0,0,1,2,.5Z" fill="#fff"></path><path id="Path_3547" data-name="Path 3547" d="M153.3,76.6h4.3v.9h-3.3v2.2h3.2v.9h-3.2v3h3.3v.9h-4.3Z" fill="#fff"></path><path id="Path_3548" data-name="Path 3548" d="M165.5,78.1a1.4,1.4,0,0,0-1.3-.7,1.2,1.2,0,0,0-1.3,1.1c0,.6.6.9,1.1,1.1l.6.2a2.556,2.556,0,0,1,2,2.4,2.4,2.4,0,0,1-2.5,2.5,2.5,2.5,0,0,1-2.4-2.2l1-.2a1.5,1.5,0,0,0,3,0c0-.8-.7-1.2-1.4-1.5l-.5-.2c-.9-.4-1.7-.9-1.7-2a2.2,2.2,0,0,1,2.3-2,2.3,2.3,0,0,1,2,1.2Z" fill="#fff"></path><path id="Path_3549" data-name="Path 3549" d="M177.9,77.5v2.3h2.7v.9h-2.7v3.8h-1V76.6h3.8v.9Z" fill="#fff"></path><path id="Path_3550" data-name="Path 3550" d="M192.8,80.6a4.15,4.15,0,1,1-4.15-4.15,4.15,4.15,0,0,1,4.15,4.15m-1,0a3.2,3.2,0,1,0-6.3,0,3.2,3.2,0,1,0,6.3,0" fill="#fff"></path><path id="Path_3551" data-name="Path 3551" d="M201.8,84.5h-1.2l-2.3-3.3h-.4v3.3h-1V76.6h1.2a4.2,4.2,0,0,1,2.1.4,2.255,2.255,0,0,1-.9,4.1Zm-3.9-4.2h.3c1,0,2.1-.2,2.1-1.4s-1.2-1.4-2.2-1.4h-.3Z" fill="#fff"></path><path id="Path_3552" data-name="Path 3552" d="M90.8,92.8V89.6h1v7.9h-1V93.7H87v3.8H86V89.6h1v3.2Z" fill="#fff"></path><path id="Path_3553" data-name="Path 3553" d="M105.6,93.6a4.15,4.15,0,1,1-4.15-4.15,4.15,4.15,0,0,1,4.15,4.15m-1,0a3.2,3.2,0,1,0-6.3,0,3.2,3.2,0,1,0,6.3,0" fill="#fff"></path><path id="Path_3554" data-name="Path 3554" d="M112.7,92.3h0l-1,5.2h-1l1.6-8.2,2.7,6.2,2.8-6.2,1.6,8.2h-1l-1-5.2h0L115,97.7Z" fill="#fff"></path><path id="Path_3555" data-name="Path 3555" d="M125,89.6h4.2v.9H126v2.2h3.1v.9H126v3h3.2v.9H125Z" fill="#fff"></path><path id="Path_3556" data-name="Path 3556" d="M142.9,93.6a4.15,4.15,0,1,1-4.15-4.15,4.15,4.15,0,0,1,4.15,4.15m-1,0a3.2,3.2,0,1,0-6.3,0,3.2,3.2,0,1,0,6.3,0" fill="#fff"></path><path id="Path_3557" data-name="Path 3557" d="M151,95.3l2.2-5.8,2.3,5.8,2.2-5.7h1.1l-3.3,8.3L153.2,92,151,97.9l-3.3-8.3h1.1Z" fill="#fff"></path><path id="Path_3558" data-name="Path 3558" d="M164,89.2l6,6.3V89.6h.9v8.3L165,91.6v5.9h-1Z" fill="#fff"></path><path id="Path_3559" data-name="Path 3559" d="M177.1,89.6h4.2v.9h-3.2v2.2h3.1v.9h-3.1v3h3.2v.9h-4.2Z" fill="#fff"></path><path id="Path_3560" data-name="Path 3560" d="M192.2,97.5H191l-2.3-3.3h-.4v3.3h-1V89.6h1.2a4.2,4.2,0,0,1,2.1.4,2.255,2.255,0,0,1-.9,4.1Zm-3.9-4.2h.3c1,0,2.1-.2,2.1-1.4s-1.2-1.4-2.2-1.4h-.3Z" fill="#fff"></path><path id="Path_3561" data-name="Path 3561" d="M201.2,91.1a1.4,1.4,0,0,0-1.3-.7,1.2,1.2,0,0,0-1.3,1.1c0,.6.6.9,1.1,1.1l.6.2a2.556,2.556,0,0,1,2,2.4,2.4,2.4,0,0,1-2.5,2.5,2.5,2.5,0,0,1-2.4-2.2l1-.2a1.5,1.5,0,0,0,3,0c0-.8-.7-1.2-1.4-1.5l-.5-.2c-.9-.4-1.7-.9-1.7-2a2.2,2.2,0,0,1,2.3-2,2.3,2.3,0,0,1,2,1.2Z" fill="#fff"></path><path id="Path_3562" data-name="Path 3562" d="M16.7,43.8l10.2,9.3V45.2a1.6,1.6,0,0,1,1.6-1.6h3.8a1.6,1.6,0,0,1,1.6,1.6v2.2L54.6,28.1a2.9,2.9,0,0,1,3.9,0L66,34.9V29.2A1.1,1.1,0,0,1,67.1,28h2.7l.6.2V4.3A4.3,4.3,0,0,0,66.1,0H4.3A4.3,4.3,0,0,0,0,4.3v50L11.2,43.8a4,4,0,0,1,5.4,0" fill="#fff"></path><path id="Path_3563" data-name="Path 3563" d="M56.6,34.3,34,55.2l-.2.2v4.1l5.4,4.9L51,53.4a5.8,5.8,0,0,1,7.9,0L70.4,64V46.9Zm3.6,13.5a1.9,1.9,0,0,1-1.9,1.9H55.2a1.9,1.9,0,0,1-1.9-1.9V44.5a1.9,1.9,0,0,1,1.9-1.9h3.2a1.9,1.9,0,0,1,1.9,1.9Z" fill="#fff"></path><path id="Path_3564" data-name="Path 3564" d="M14.9,103H66.1a4.3,4.3,0,0,0,4.3-4.3V79.8L55,65.7ZM62.2,86.3v6.4a3.7,3.7,0,0,1-3.7,3.7H52.1a3.7,3.7,0,0,1-3.7-3.7V86.3a3.7,3.7,0,0,1,3.7-3.7h6.4a3.7,3.7,0,0,1,3.7,3.7" fill="#fff"></path><path id="Path_3565" data-name="Path 3565" d="M33.3,70,14,52.3,0,65.3V98.7a4.3,4.3,0,0,0,.6,2.2,5.8,5.8,0,0,1,1.3-1.8ZM9.4,66.5A2.6,2.6,0,0,1,12,63.9h4.4A2.6,2.6,0,0,1,19,66.5v4.4a2.6,2.6,0,0,1-2.6,2.6H12a2.6,2.6,0,0,1-2.6-2.6Z" fill="#fff"></path></g></g></g></svg>