<svg xmlns="http://www.w3.org/2000/svg" width="202.302" height="103" viewBox="0 0 202.302 103"><g id="Artwork_1" data-name="Artwork 1" transform="translate(101.151 51.5)"><g id="Group_808" data-name="Group 808" transform="translate(-101.151 -51.5)"><g id="Group_806" data-name="Group 806" transform="translate(85.7 8.8)"><path id="Path_3566" data-name="Path 3566" d="M95.8,22.1V16.5H89.5v5.6H86.7V8.8h2.8V14h6.3V8.8h2.9V22.1Z" transform="translate(-85.7 -8.8)" fill="#101179"></path><path id="Path_3567" data-name="Path 3567" d="M100.6,15.4a7,7,0,0,1,13.9,0,7,7,0,0,1-13.9,0Zm11,0c0-2.5-1.6-4.4-4-4.4a4.132,4.132,0,0,0-4.1,4.4,4.11,4.11,0,1,0,8.2,0Z" transform="translate(-85.7 -8.8)" fill="#101179"></path><path id="Path_3568" data-name="Path 3568" d="M128.2,22.1V12.5l-3.8,9.6h-1.2l-3.8-9.6v9.6h-2.8V8.8h4l3.2,8.3L127,8.8h4V22.1Z" transform="translate(-85.7 -8.8)" fill="#101179"></path><path id="Path_3569" data-name="Path 3569" d="M133.7,22.1V8.8h9.4v2.5h-6.6v2.8H143v2.5h-6.5v3h6.6v2.5Z" transform="translate(-85.7 -8.8)" fill="#101179"></path><path id="Path_3570" data-name="Path 3570" d="M94.2,42.1l-2.6-4.7H89.5v4.7H86.7V28.8h6.2a4.2,4.2,0,0,1,4.5,4.3,3.9,3.9,0,0,1-2.9,4l3,5.1Zm.3-9.1a1.8,1.8,0,0,0-2-1.8h-3v3.6h3a1.8,1.8,0,0,0,2-1.8Z" transform="translate(-85.7 -8.8)" fill="#101179"></path><path id="Path_3571" data-name="Path 3571" d="M99.5,42.1V28.8H109v2.5h-6.6v2.8h6.5v2.5h-6.5v3H109v2.5Z" transform="translate(-85.7 -8.8)" fill="#101179"></path><path id="Path_3572" data-name="Path 3572" d="M111.2,42.1V28.8h6.2a4.3,4.3,0,1,1,0,8.6H114v4.8Zm7.8-9a1.8,1.8,0,0,0-2-1.8h-3v3.6h3a1.8,1.8,0,0,0,2-1.8Z" transform="translate(-85.7 -8.8)" fill="#101179"></path><path id="Path_3573" data-name="Path 3573" d="M131.4,42.1l-.8-2.3h-5.7l-.8,2.3h-3.2L126,28.8h3.6l5.1,13.3Zm-3.7-10.5-2.1,5.7h4.2Z" transform="translate(-85.7 -8.8)" fill="#101179"></path><path id="Path_3574" data-name="Path 3574" d="M135.9,42.1V28.8h2.8V42.1Z" transform="translate(-85.7 -8.8)" fill="#101179"></path><path id="Path_3575" data-name="Path 3575" d="M148.9,42.1l-2.6-4.7h-2.1v4.7h-2.8V28.8h6.2a4.2,4.2,0,0,1,4.5,4.3,3.9,3.9,0,0,1-2.9,4l3,5.1Zm.3-9.1a1.8,1.8,0,0,0-2-1.8h-3v3.6h3a1.8,1.8,0,0,0,2-1.8Z" transform="translate(-85.7 -8.8)" fill="#101179"></path><path id="Path_3576" data-name="Path 3576" d="M85.7,60.2,87.3,58a5.9,5.9,0,0,0,4.2,1.8c1.6,0,2.3-.7,2.3-1.5,0-2.3-7.7-.7-7.7-5.7,0-2.2,1.9-4.1,5.1-4.1a7.4,7.4,0,0,1,5.2,1.9l-1.6,2.1A5.7,5.7,0,0,0,91,51.1c-1.2,0-1.9.5-1.9,1.3s7.7.7,7.7,5.7c0,2.4-1.8,4.3-5.3,4.3A7.7,7.7,0,0,1,85.7,60.2Z" transform="translate(-85.7 -8.8)" fill="#101179"></path><path id="Path_3577" data-name="Path 3577" d="M98.7,62.1V48.8h9.4v2.5h-6.6v2.8H108v2.5h-6.5v3h6.6v2.5Z" transform="translate(-85.7 -8.8)" fill="#101179"></path><path id="Path_3578" data-name="Path 3578" d="M117.9,62.1l-2.6-4.7h-2.1v4.7h-2.8V48.8h6.2a4.2,4.2,0,0,1,4.5,4.3,3.9,3.9,0,0,1-2.9,4l3,5.1Zm.3-9.1a1.8,1.8,0,0,0-2-1.8h-3v3.6h3a1.8,1.8,0,0,0,1.9-1.8Z" transform="translate(-85.7 -8.8)" fill="#101179"></path><path id="Path_3579" data-name="Path 3579" d="M126.7,62.1l-5.1-13.3h3.2L128.5,59l3.7-10.2h3.2l-5.1,13.3Z" transform="translate(-85.7 -8.8)" fill="#101179"></path><path id="Path_3580" data-name="Path 3580" d="M136.7,62.1V48.8h2.8V62.1Z" transform="translate(-85.7 -8.8)" fill="#101179"></path><path id="Path_3581" data-name="Path 3581" d="M141.5,55.4a6.8,6.8,0,0,1,7.1-6.9,6.1,6.1,0,0,1,5.6,3.3L151.7,53a3.6,3.6,0,0,0-3.1-1.9,4.4,4.4,0,0,0,0,8.8,3.6,3.6,0,0,0,3.1-1.9l2.4,1.2a6.1,6.1,0,0,1-5.6,3.3,6.8,6.8,0,0,1-7-7.1Z" transform="translate(-85.7 -8.8)" fill="#101179"></path><path id="Path_3582" data-name="Path 3582" d="M155.9,62.1V48.8h9.4v2.5h-6.6v2.8h6.5v2.5h-6.5v3h6.6v2.5Z" transform="translate(-85.7 -8.8)" fill="#101179"></path><path id="Path_3583" data-name="Path 3583" d="M166.6,60.2l1.6-2.2a5.9,5.9,0,0,0,4.2,1.8c1.6,0,2.3-.7,2.3-1.5,0-2.3-7.7-.7-7.7-5.7,0-2.2,1.9-4.1,5.1-4.1a7.4,7.4,0,0,1,5.2,1.9l-1.6,2.1a5.7,5.7,0,0,0-3.9-1.5c-1.2,0-1.9.5-1.9,1.3s7.7.7,7.7,5.7c0,2.4-1.8,4.3-5.3,4.3A7.7,7.7,0,0,1,166.6,60.2Z" transform="translate(-85.7 -8.8)" fill="#101179"></path></g><g id="Group_807" data-name="Group 807" transform="translate(86 76.45)"><path id="Path_3584" data-name="Path 3584" d="M91,84.5H89.8l-2.3-3.3h-.4v3.3h-1V76.6h1.2a4.2,4.2,0,0,1,2.1.4,2.255,2.255,0,0,1-.9,4.1Zm-3.9-4.2h.3c1,0,2.1-.2,2.1-1.4s-1.2-1.4-2.2-1.4H87Z" transform="translate(-86 -76.45)" fill="#333"></path><path id="Path_3585" data-name="Path 3585" d="M95,76.6h4.3v.9H95.9v2.2h3.2v.9H95.9v3h3.3v.9H95Z" transform="translate(-86 -76.45)" fill="#333"></path><path id="Path_3586" data-name="Path 3586" d="M107.1,78.1a1.4,1.4,0,0,0-1.3-.7,1.2,1.2,0,0,0-1.3,1.1c0,.6.6.9,1.1,1.1l.6.2a2.556,2.556,0,0,1,2,2.4,2.4,2.4,0,0,1-2.5,2.5,2.5,2.5,0,0,1-2.4-2.2l1-.2a1.5,1.5,0,0,0,3,0c0-.9-.7-1.2-1.4-1.5l-.5-.2c-.9-.4-1.7-.9-1.7-2a2.2,2.2,0,0,1,2.3-2,2.3,2.3,0,0,1,2,1.2Z" transform="translate(-86 -76.45)" fill="#333"></path><path id="Path_3587" data-name="Path 3587" d="M120.1,80.6a4.15,4.15,0,1,1-4.15-4.15A4.15,4.15,0,0,1,120.1,80.6Zm-1,0a3.2,3.2,0,1,0-6.3,0,3.2,3.2,0,1,0,6.3,0Z" transform="translate(-86 -76.45)" fill="#333"></path><path id="Path_3588" data-name="Path 3588" d="M125.1,76.6v4.7c0,1.3.4,2.5,1.9,2.5s1.9-1.2,1.9-2.5V76.6h1v5a2.9,2.9,0,1,1-5.8,0v-5Z" transform="translate(-86 -76.45)" fill="#333"></path><path id="Path_3589" data-name="Path 3589" d="M139.3,84.5h-1.2l-2.3-3.3h-.4v3.3h-1V76.6h1.2a4.2,4.2,0,0,1,2.1.4,2.255,2.255,0,0,1-.9,4.1Zm-3.9-4.2h.3c1,0,2.1-.2,2.1-1.4s-1.2-1.4-2.2-1.4h-.3Z" transform="translate(-86 -76.45)" fill="#333"></path><path id="Path_3590" data-name="Path 3590" d="M149,78.1a3.246,3.246,0,1,0,0,4.9v1.2a4.3,4.3,0,0,1-2.1.6,4.1,4.1,0,0,1-4.1-4.1,4.2,4.2,0,0,1,4.2-4.2,3.8,3.8,0,0,1,2,.5Z" transform="translate(-86 -76.45)" fill="#333"></path><path id="Path_3591" data-name="Path 3591" d="M153.3,76.6h4.3v.9h-3.3v2.2h3.2v.9h-3.2v3h3.3v.9h-4.3Z" transform="translate(-86 -76.45)" fill="#333"></path><path id="Path_3592" data-name="Path 3592" d="M165.5,78.1a1.4,1.4,0,0,0-1.3-.7,1.2,1.2,0,0,0-1.3,1.1c0,.6.6.9,1.1,1.1l.6.2a2.556,2.556,0,0,1,2,2.4,2.4,2.4,0,0,1-2.5,2.5,2.5,2.5,0,0,1-2.4-2.2l1-.2a1.5,1.5,0,0,0,3,0c0-.9-.7-1.2-1.4-1.5l-.5-.2c-.9-.4-1.7-.9-1.7-2a2.2,2.2,0,0,1,2.3-2,2.3,2.3,0,0,1,2,1.2Z" transform="translate(-86 -76.45)" fill="#333"></path><path id="Path_3593" data-name="Path 3593" d="M177.9,77.5v2.2h2.8v.9h-2.8v3.9h-1V76.6h3.8v.9Z" transform="translate(-86 -76.45)" fill="#333"></path><path id="Path_3594" data-name="Path 3594" d="M192.8,80.6a4.15,4.15,0,1,1-4.15-4.15A4.15,4.15,0,0,1,192.8,80.6Zm-1,0a3.2,3.2,0,1,0-6.3,0,3.2,3.2,0,1,0,6.3,0Z" transform="translate(-86 -76.45)" fill="#333"></path><path id="Path_3595" data-name="Path 3595" d="M201.8,84.5h-1.2l-2.3-3.3h-.4v3.3h-1V76.6h1.2a4.2,4.2,0,0,1,2.1.4,2.255,2.255,0,0,1-.9,4.1Zm-3.9-4.2h.3c1,0,2.1-.2,2.1-1.4s-1.2-1.4-2.2-1.4h-.3Z" transform="translate(-86 -76.45)" fill="#333"></path><path id="Path_3596" data-name="Path 3596" d="M90.8,92.8V89.6h1v7.9h-1V93.7H87v3.8H86V89.6h1v3.2Z" transform="translate(-86 -76.45)" fill="#333"></path><path id="Path_3597" data-name="Path 3597" d="M105.6,93.6a4.15,4.15,0,1,1-4.15-4.15,4.15,4.15,0,0,1,4.15,4.15Zm-1,0a3.2,3.2,0,1,0-6.3,0,3.2,3.2,0,1,0,6.3,0Z" transform="translate(-86 -76.45)" fill="#333"></path><path id="Path_3598" data-name="Path 3598" d="M112.7,92.3h0l-.9,5.2h-1l1.6-8.3,2.7,6.2,2.7-6.2,1.6,8.3h-1l-.9-5.2h0L115,97.7Z" transform="translate(-86 -76.45)" fill="#333"></path><path id="Path_3599" data-name="Path 3599" d="M125,89.6h4.3v.9H126v2.2h3.2v.9H126v3h3.3v.9H125Z" transform="translate(-86 -76.45)" fill="#333"></path><path id="Path_3600" data-name="Path 3600" d="M142.9,93.6a4.15,4.15,0,1,1-4.15-4.15,4.15,4.15,0,0,1,4.15,4.15Zm-1,0a3.2,3.2,0,1,0-6.3,0,3.2,3.2,0,1,0,6.3,0Z" transform="translate(-86 -76.45)" fill="#333"></path><path id="Path_3601" data-name="Path 3601" d="M151,95.3l2.2-5.8,2.2,5.8,2.2-5.7h1.1l-3.3,8.2L153.2,92,151,97.9l-3.3-8.2h1.1Z" transform="translate(-86 -76.45)" fill="#333"></path><path id="Path_3602" data-name="Path 3602" d="M164,89.2l5.9,6.2V89.6h1v8.2L165,91.6v5.9h-1Z" transform="translate(-86 -76.45)" fill="#333"></path><path id="Path_3603" data-name="Path 3603" d="M177.1,89.6h4.3v.9h-3.3v2.2h3.2v.9h-3.2v3h3.3v.9h-4.3Z" transform="translate(-86 -76.45)" fill="#333"></path><path id="Path_3604" data-name="Path 3604" d="M192.2,97.5H191l-2.3-3.3h-.4v3.3h-1V89.6h1.2a4.2,4.2,0,0,1,2.1.4,2.255,2.255,0,0,1-.9,4.1Zm-3.9-4.2h.3c1,0,2.1-.2,2.1-1.4s-1.2-1.4-2.2-1.4h-.3Z" transform="translate(-86 -76.45)" fill="#333"></path><path id="Path_3605" data-name="Path 3605" d="M201.2,91.1a1.4,1.4,0,0,0-1.3-.7,1.2,1.2,0,0,0-1.3,1.1c0,.6.6.9,1.1,1.1l.6.2a2.556,2.556,0,0,1,2,2.4,2.4,2.4,0,0,1-2.5,2.5,2.5,2.5,0,0,1-2.4-2.2l1-.2a1.5,1.5,0,0,0,3,0c0-.9-.7-1.2-1.4-1.5l-.5-.2c-.9-.4-1.7-.9-1.7-2a2.2,2.2,0,0,1,2.3-2,2.3,2.3,0,0,1,2,1.2Z" transform="translate(-86 -76.45)" fill="#333"></path></g><path id="Path_3606" data-name="Path 3606" d="M16.7,43.8l10.2,9.3V45.2a1.6,1.6,0,0,1,1.6-1.6h3.8a1.6,1.6,0,0,1,1.6,1.6v2.2L54.6,28.1a2.9,2.9,0,0,1,3.9,0L66,34.9V29.2A1.1,1.1,0,0,1,67.1,28h2.7l.6.2V4.3A4.3,4.3,0,0,0,66.1,0H4.3A4.3,4.3,0,0,0,0,4.3v50L11.2,43.8a4,4,0,0,1,5.5,0Z" transform="translate(0)" fill="#fa0"></path><path id="Path_3607" data-name="Path 3607" d="M56.6,34.3,34,55.2l-.2.2v4.1l5.4,4.9L51,53.4a5.8,5.8,0,0,1,7.9,0L70.4,64V46.9Zm1.7,15.3H55.2a1.9,1.9,0,0,1-1.9-1.9V44.5a1.9,1.9,0,0,1,1.9-1.9h3.2a1.9,1.9,0,0,1,1.9,1.9v3.2a1.9,1.9,0,0,1-1.9,1.9Z" transform="translate(0)" fill="#53ae39"></path><path id="Path_3608" data-name="Path 3608" d="M14.9,103H66.1a4.3,4.3,0,0,0,4.3-4.3V79.8L55,65.7ZM62.2,86.3v6.4a3.7,3.7,0,0,1-3.7,3.7H52.1a3.7,3.7,0,0,1-3.7-3.7V86.3a3.7,3.7,0,0,1,3.7-3.7h6.4a3.7,3.7,0,0,1,3.7,3.7Z" transform="translate(0)" fill="#100f7a"></path><path id="Path_3609" data-name="Path 3609" d="M33.3,70,14,52.3,0,65.3V98.7a4.3,4.3,0,0,0,.6,2.2,5.8,5.8,0,0,1,1.3-1.8ZM9.4,66.5A2.6,2.6,0,0,1,12,63.9h4.4A2.6,2.6,0,0,1,19,66.5v4.4a2.6,2.6,0,0,1-2.6,2.6H12a2.6,2.6,0,0,1-2.6-2.6Z" transform="translate(0)" fill="#fd5127"></path><path id="Path_3610" data-name="Path 3610" d="M59,53.5a5.8,5.8,0,0,0-7.9,0l-11.8,11,4.6,4.2a4.07,4.07,0,0,1-5.5,6L33.3,70,1.9,99.1a5.8,5.8,0,0,0-1.3,1.8A4.3,4.3,0,0,0,4.3,103H14.9L55,65.7,70.4,79.8V64Z" transform="translate(0)" fill="#fff"></path><rect id="Rectangle_584" data-name="Rectangle 584" width="13.9" height="13.88" rx="3.7" transform="translate(48.4 82.5)" fill="#fff"></rect><path id="Path_3611" data-name="Path 3611" d="M33.3,70l5.9-5.5-5.4-4.9V55.4a2.913,2.913,0,1,1-3.7-4.5l3.7-3.5V45.2a1.6,1.6,0,0,0-1.6-1.6H28.5a1.6,1.6,0,0,0-1.6,1.6v7.9L16.7,43.8a4,4,0,0,0-5.4,0L0,54.3v11l14-13Z" transform="translate(0)" fill="#fff"></path><path id="Path_3612" data-name="Path 3612" d="M38.4,74.6a4.07,4.07,0,1,0,5.5-6l-4.6-4.2-6,5.6Z" transform="translate(0)" fill="#fff"></path><rect id="Rectangle_585" data-name="Rectangle 585" width="9.6" height="9.58" rx="2.6" transform="translate(9.4 63.9)" fill="#fff"></rect><path id="Path_3613" data-name="Path 3613" d="M67.1,28A1.1,1.1,0,0,0,66,29.2v5.7l-7.4-6.8a2.9,2.9,0,0,0-3.9,0L33.8,47.5v7.9l.2-.2,22.6-21L70.4,46.9V28.2l-.6-.2Z" transform="translate(0)" fill="#fff"></path><path id="Path_3614" data-name="Path 3614" d="M30.1,50.9a2.913,2.913,0,0,0,3.7,4.5V47.5Z" transform="translate(0)" fill="#fff"></path><rect id="Rectangle_586" data-name="Rectangle 586" width="6.9" height="6.93" rx="1.9" transform="translate(53.3 42.7)" fill="#fff"></rect></g></g></svg>