<svg xmlns="http://www.w3.org/2000/svg" viewBox="0 0 373.49 762.34"><defs><style>.cls-1{fill:#fff;}.cls-2{fill:#fa0;}.cls-3{fill:#53ae39;}.cls-4{fill:#100f7a;}.cls-5{fill:#fd5127;}</style></defs><g id="Layer_2" data-name="Layer 2"><g id="Layer_1-2" data-name="Layer 1"><path class="cls-1" d="M290,356.35V334.63a30,30,0,0,0-10-58.28H249.59a90,90,0,1,0-159.18,0H60a30,30,0,0,0-10,58.28v21.72a50.06,50.06,0,0,0-50,50v306a50.06,50.06,0,0,0,50,50H290a50.06,50.06,0,0,0,50-50v-306a50.06,50.06,0,0,0-50-50Zm-190-122a70,70,0,1,1,126,42H184.15a28.62,28.62,0,0,0,2.26-2,26.64,26.64,0,0,0,0-37.71l-18.68-18.69a6.66,6.66,0,1,1,9.42-9.43,10,10,0,1,0,14.15-14.14,26.65,26.65,0,0,0-11.3-6.73v-3.29a10,10,0,0,0-20,0v5.28a26.67,26.67,0,0,0-6.42,42.45l18.69,18.69a6.67,6.67,0,0,1-9.43,9.43,10,10,0,1,0-14.14,14.14,28.75,28.75,0,0,0,2.27,2H114a70.05,70.05,0,0,1-14-42Zm-40,62H280a10,10,0,0,1,0,20H60a10,10,0,0,1,0-20Zm260,416a30,30,0,0,1-30,30H50a30,30,0,0,1-30-30v-306a30,30,0,0,1,30-30h75a10,10,0,0,0,0-20H70v-20H270v20H215a10,10,0,0,0,0,20h75a30,30,0,0,1,30,30Z"></path><path class="cls-1" d="M306.26,29.88c-1.28,0-2.54,0-3.8.11a67.23,67.23,0,1,0-56,104.47c1.27,0,2.54,0,3.81-.11a67.23,67.23,0,1,0,56-104.47ZM194.2,67.23A52.3,52.3,0,0,1,286,33a67.18,67.18,0,0,0-17.74,8.66A33.61,33.61,0,1,0,239.09,100a66.76,66.76,0,0,0,3.73,19.36A52.35,52.35,0,0,1,194.2,67.23Zm46,17.56a18.67,18.67,0,1,1,16.61-33.15A67.19,67.19,0,0,0,240.16,84.79Zm66.1,64.61a52.29,52.29,0,1,1,52.29-52.29A52.35,52.35,0,0,1,306.26,149.4Z"></path><path class="cls-1" d="M311.6,77.81a7.47,7.47,0,0,0,10.57-10.57,19.9,19.9,0,0,0-8.44-5V59.76a7.47,7.47,0,0,0-14.94,0V63.7A19.92,19.92,0,0,0,294,95.41l14,14a5,5,0,1,1-7,7A7.47,7.47,0,1,0,290.35,127a19.58,19.58,0,0,0,8.44,5v2.47a7.47,7.47,0,0,0,14.94,0v-3.94a19.94,19.94,0,0,0,4.79-31.71l-14-14a5,5,0,1,1,7-7Z"></path><path class="cls-1" d="M170,376.35a10,10,0,0,0,0-20h0a10,10,0,0,0,0,20Z"></path><path id="Path_3606" data-name="Path 3606" class="cls-2" d="M127.16,551.44,150.78,573V554.68a3.71,3.71,0,0,1,3.71-3.71h8.79a3.71,3.71,0,0,1,3.71,3.71v5.09l47.93-44.69a6.73,6.73,0,0,1,9,0l17.37,15.75v-13.2a2.55,2.55,0,0,1,2.3-2.77h6.5l1.39.46V460a10,10,0,0,0-10-10H98.45a10,10,0,0,0-10,10V575.75l25.94-24.31A9.26,9.26,0,0,1,127.16,551.44Z"></path><path id="Path_3607" data-name="Path 3607" class="cls-3" d="M219.55,529.44l-52.33,48.39-.46.47v9.49l12.5,11.35,27.33-25.47a13.42,13.42,0,0,1,18.29,0l26.63,24.54V558.62Zm3.94,35.43h-7.18a4.4,4.4,0,0,1-4.4-4.4h0v-7.41a4.4,4.4,0,0,1,4.4-4.4h7.41a4.4,4.4,0,0,1,4.4,4.4h0v7.41a4.4,4.4,0,0,1-4.4,4.4h-.23Z"></path><path id="Path_3608" data-name="Path 3608" class="cls-4" d="M123,688.52H241.55a10,10,0,0,0,10-10h0V634.8l-35.66-32.65Zm109.53-38.67v14.82a8.57,8.57,0,0,1-8.57,8.56H209.13a8.56,8.56,0,0,1-8.56-8.56V649.85a8.57,8.57,0,0,1,8.56-8.57H224A8.57,8.57,0,0,1,232.52,649.85Z"></path><path id="Path_3609" data-name="Path 3609" class="cls-5" d="M165.6,612.1l-44.69-41-32.42,30.1v77.34a10,10,0,0,0,1.39,5.09,13.48,13.48,0,0,1,3-4.16ZM110.26,604a6,6,0,0,1,6-6h10.19a6,6,0,0,1,6,6v10.19a6,6,0,0,1-6,6H116.28a6,6,0,0,1-6-6Z"></path><path id="Path_3610" data-name="Path 3610" class="cls-1" d="M225.11,573.9a13.42,13.42,0,0,0-18.29,0l-27.33,25.47,10.66,9.72A9.43,9.43,0,0,1,177.41,623L165.6,612.1,92.89,679.49a13.48,13.48,0,0,0-3,4.16,10,10,0,0,0,8.57,4.87H123l92.86-86.37,35.66,32.65V598.21Z"></path><rect id="Rectangle_584" data-name="Rectangle 584" class="cls-1" x="200.57" y="641.05" width="32.19" height="32.14" rx="8.57"></rect><path id="Path_3611" data-name="Path 3611" class="cls-1" d="M165.6,612.1l13.66-12.73L166.76,588V578.3A6.74,6.74,0,0,1,158.11,568a.27.27,0,0,1,.08-.07l8.57-8.11v-5.09a3.71,3.71,0,0,0-3.71-3.71h-8.56a3.71,3.71,0,0,0-3.71,3.71V573l-23.62-21.53a9.25,9.25,0,0,0-12.5,0L88.49,575.75v25.47l32.42-30.1Z"></path><path id="Path_3612" data-name="Path 3612" class="cls-1" d="M177.41,622.76A9.42,9.42,0,0,0,190.31,609l-.16-.16-10.66-9.72-13.89,13Z"></path><rect id="Rectangle_585" data-name="Rectangle 585" class="cls-1" x="110.26" y="597.98" width="22.23" height="22.18" rx="6.02"></rect><path id="Path_3613" data-name="Path 3613" class="cls-1" d="M243.87,514.85a2.55,2.55,0,0,0-2.56,2.54,1.93,1.93,0,0,0,0,.24v13.2l-17.14-15.75a6.73,6.73,0,0,0-9,0L166.76,560v18.3l.46-.47,52.33-48.62,32,29.41V515.31l-1.39-.46Z"></path><path id="Path_3614" data-name="Path 3614" class="cls-1" d="M158.19,567.88a6.75,6.75,0,0,0,8.57,10.42V560Z"></path><rect id="Rectangle_586" data-name="Rectangle 586" class="cls-1" x="211.91" y="548.89" width="15.98" height="16.05" rx="4.4"></rect></g></g></svg>