<svg xmlns="http://www.w3.org/2000/svg" viewBox="0 0 908.56 225.1"><defs><style>.cls-1{fill:#ee4339;}</style></defs><g id="Layer_2" data-name="Layer 2"><g id="Layer_1-2" data-name="Layer 1"><path class="cls-1" d="M0,167.72c4.26.81,5.76-1.73,7-5.25,9.54-26.8,19.27-53.53,28.75-80.36,1.16-3.3,2.52-4.65,6.16-4.47,6.65.34,13.33.29,20,0,3.49-.14,5,.89,6.23,4.38,9.47,27,19.25,53.88,28.92,80.8,1,2.77,2,5.42,5.75,4.92,2.32-.31,2.19,1.34,2.19,2.88,0,6,0,12,0,18,0,1.86-.13,3.23-2.6,3.09-6.47-.35-13,.41-19.44-.63-4.27-.68-7-2.81-8.48-6.69-1.62-4.33-3.1-8.72-4.48-13.14-.77-2.45-1.76-3.75-4.77-3.65-8.82.26-17.66.24-26.48,0-2.94-.08-4.12,1-4.82,3.61-.86,3.2-2,6.32-3.07,9.46-3,8.75-5.49,10.68-14.89,11-5.32.16-10.66,0-16,0ZM52.42,109l-1,0c-2.61,9.21-5.19,18.44-7.85,27.64-2.41,8.32-2.44,8.34,6.24,8.29,4.13,0,10.44,1.31,11.88-.72,2.13-3-1.53-7.89-2.59-12C57.07,124.39,54.66,116.71,52.42,109Z"></path><path class="cls-1" d="M144.42,120.38c21.73-17.84,33.63-17.7,47.94.37,7.55-9.88,17.49-14.36,29.89-13.23,11.94,1.09,19.68,8.39,21.8,20.26,1,5.79.95,11.59.95,17.41,0,13.83-.1,27.66.08,41.48,0,3.3-.91,4.26-4.16,4.13a178.17,178.17,0,0,0-18.49,0c-4,.26-4.56-1.31-4.51-4.81.19-13.33.07-26.66.07-40,0-1,0-2,0-3-.23-4.46.22-9.42-5.33-11.16-4.35-1.36-10.72,1.91-13.49,6.61-2.95,5-3.95,10.56-4,16.26-.1,10.5-.23,21,.07,31.49.11,3.92-1.19,4.75-4.79,4.57a150.29,150.29,0,0,0-17,0c-4.16.25-5.7-.63-5.58-5.31.37-14.65.13-29.32.13-44,0-3.55.09-7.29-3.71-9.07-4.05-1.9-7.94-.44-11.18,2.06-4.92,3.81-6.54,9.4-7.11,15.32-1.16,12.13-.49,24.29-.51,36.44,0,3.36-.72,4.7-4.36,4.53-6.32-.29-12.66-.15-19,0-2.35,0-3.63-.31-3.62-3.19q.14-37.49,0-75c0-2.73,1.15-3.38,3.6-3.34,5.83.11,11.68.31,17.48-.06,4.19-.26,5.26,1.44,4.84,5.16A58.46,58.46,0,0,0,144.42,120.38Z"></path><path class="cls-1" d="M697.61,182.26A53.35,53.35,0,0,1,663,191.94a54.23,54.23,0,0,1-50.06-45c-2.92-18.14-.91-35.26,11-50,13.35-16.51,31.15-23,52-21.75a68.81,68.81,0,0,1,34.16,10.93c3.71,2.41,4.92,4.55,1.73,8.48A98.53,98.53,0,0,0,704,106.7c-1.56,2.61-2.46,3.64-5.73,1.38-11.19-7.73-23.56-10.26-36.88-6.33-16.42,4.84-23.34,19.71-21.06,35.59,3.83,26.81,30,38.29,52.82,23.59,2.48-1.6,4.08-7.49,2.82-10.14a1.58,1.58,0,0,0-1.5-1c-.66,0-1.33,0-2-.05-4-.12-9.42,1.29-11.52-.75-2.76-2.67-.85-8.16-.9-12.43-.14-10,0-10,9.69-10,9,0,18,.09,27-.06,2.82,0,3.72.83,3.7,3.68q-.16,28,0,56c0,3.07-.91,4.13-4,4a104.68,104.68,0,0,0-13.49,0c-4.22.35-5.84-1.09-5.12-5.24A14.1,14.1,0,0,0,697.61,182.26Z"></path><path class="cls-1" d="M833.07,191.71c-9.35,0-18.18-.13-27,.08-2.77.06-3.76-1.4-4.79-3.39q-8.16-15.68-16.37-31.32c-1.86-3.54-11.3-6.09-14.69-4-1.61,1-1,2.69-1,4.1-.05,10-.15,20,0,30,.07,3.29-.54,4.76-4.27,4.58-6.32-.32-12.67-.21-19,0-2.84.08-4.08-.4-4.07-3.72q.2-53.23.05-106.47c0-2.47.12-4,3.36-3.9,16.47.54,33-.7,49.43,1A32.78,32.78,0,0,1,824,109.93c.55,13.8-2.95,25.68-15.19,33.61-2.41,1.55-.67,2.68.08,4q11.8,21.06,23.59,42.15A12.08,12.08,0,0,1,833.07,191.71Zm-63.92-76v1c0,14.63,0,14.68,14.68,12.92,4-.48,7.76-1.88,10.23-5.41,3-4.27,2.89-14.14-.12-18.09s-17.05-7.26-23.06-4.22c-4.25,2.16-.8,7.51-1.7,11.31A10.89,10.89,0,0,0,769.15,115.71Z"></path><path class="cls-1" d="M288.12,118.57c6.4-6.36,12.74-10.22,20.69-11,20.22-2,36.31,9.8,40.07,29.75,2.39,12.67,1.92,25.13-4.7,36.71-10.59,18.51-32.71,24-50.59,12.55-.66-.43-1.2-1.2-2.58-.76,0,10.66-.14,21.43.07,32.19.08,3.52-.54,5-4.53,4.79a147.59,147.59,0,0,0-18,0c-3.77.21-4.7-.93-4.68-4.66.16-30.13.09-60.27.09-90.4,0-4.83.16-9.66-.06-14.48-.13-3,.64-4.18,3.84-4a135.49,135.49,0,0,0,15.48,0c3.95-.26,5.52,1,4.9,5A35.35,35.35,0,0,0,288.12,118.57ZM323,150.32a23.45,23.45,0,0,0-2.3-11.14c-2.74-6-7.57-9.31-14.14-9.27-6.31,0-11.32,2.94-13.9,8.88-3.56,8.23-3.71,16.51,1.16,24.35,4.55,7.34,13.44,9.3,20.82,4.76C321.19,163.85,322.66,157.34,323,150.32Z"></path><path class="cls-1" d="M517,110.31c9.89,0,19,.09,28.17,0,3.22-.05,3.21,2.4,3.78,4.27,4.29,14.06,9.45,27.86,13,42.15.15.6.39,1.19,1.09,3.25,2.21-8.2,4.08-15.06,5.91-21.93,2.08-7.83,4.26-15.64,6.14-23.52.8-3.32,2.34-4.4,5.81-4.27,8.12.3,16.25.09,25.07.09-4.44,12-8.66,23.23-12.83,34.52-6.77,18.31-13.39,36.68-20.28,54.94-4.58,12.12-12.28,21.31-25.52,24.31a35.87,35.87,0,0,1-24.72-2.75c-2.17-1.1-3.12-2-1.79-4.52s2.35-5.47,3.56-8.2c1.13-2.57,1.74-5.78,3.67-7.47s4.55,1.21,7,1.58a14.77,14.77,0,0,0,16.1-11.19c.43-2.07-.64-3.56-1.32-5.15q-15.42-35.84-31-71.59C518.35,113.58,517.86,112.37,517,110.31Z"></path><path class="cls-1" d="M470,161.07c0-8.33-.17-16.66.08-25,.1-3.42-.75-5.07-4.34-4.37-5,1-6.37-1.21-5.82-5.91a47.08,47.08,0,0,0,0-10.48c-.46-4.15,1.28-5.21,5-4.77,2.94.35,5.2.39,5.2-4.1,0-15.29,8.05-24.81,23.3-28.49,6.21-1.49,12.51-1.42,18.83-1.32,2.33,0,3.24.74,3.18,3.16-.14,5.49-.2,11,0,16.48.12,3.07-1.25,3.64-3.85,3.45a22.56,22.56,0,0,0-8.85,1,8,8,0,0,0-4.85,4c-2,3.9-.89,5.82,3.42,5.89,10.84.18,10.84.18,10.84,11.35,0,9.73,0,9.93-9.91,9.66-4-.11-5.37.8-5.29,5.11.27,16.47,0,33,.2,49.44.05,3.8-1,4.83-4.72,4.64a153.9,153.9,0,0,0-18,0c-4,.25-4.67-1.2-4.56-4.77C470.17,177.72,470,169.39,470,161.07Z"></path><path class="cls-1" d="M363.72,124.2c0-13.82.19-27.64-.11-41.46-.09-4.32,1.28-5.34,5.32-5.09a145.74,145.74,0,0,0,17,0c3.86-.22,5,.85,5,4.88-.21,23.48-.11,47-.09,70.44,0,2.67.14,5.33.11,8-.05,4.89,2.36,7.65,7.19,7.53,3.36-.08,3.81,1.37,3.72,4.17-.18,5.16-.2,10.33,0,15.48.1,2.82-.86,3.64-3.65,3.83a64.41,64.41,0,0,1-14.44-.48c-11.78-1.86-19.37-10.67-19.69-23.34-.36-14.64-.08-29.3-.08-43.95Z"></path><path class="cls-1" d="M417,150.69c0-12.17.12-24.34-.07-36.5-.05-3.33.6-4.72,4.29-4.54,6.49.31,13,.19,19.49,0,2.56-.06,3.47.63,3.46,3.32q-.14,37.76,0,75.5c0,2.8-1.1,3.29-3.54,3.24-6.5-.13-13-.2-19.5,0-3.18.11-4.27-.73-4.22-4.1C417.14,175.35,417,163,417,150.69Z"></path><path class="cls-1" d="M879,43.27c.38,2.57-1.09,4.45-2.7,6.14-6.77,7.11-13.56,14.21-20.48,21.18-4.16,4.18-7.87,4.18-12.2.26-2.47-2.23-4.91-4.51-7.17-6.95-3.51-3.79-3.71-7.78-.22-11.56q10.32-11.19,21.07-22c3.58-3.63,7.67-3.76,11.59-.54a103.12,103.12,0,0,1,8,7.56A6.79,6.79,0,0,1,879,43.27Z"></path><path class="cls-1" d="M816,.4a7.59,7.59,0,0,1,5,0c3.32,1.5,6.7,2.88,9.94,4.53,4.93,2.52,6.4,6.48,4.2,11.64-3.77,8.85-7.71,17.63-11.6,26.42a13.82,13.82,0,0,1-1.43,2.62c-3.42,4.67-8.51,4.24-19.34-1.57-4.51-2.43-6.16-6.16-4.19-10.8C802.5,24,806.75,14.77,810.78,5.5A10.2,10.2,0,0,1,816,.4Z"></path><path class="cls-1" d="M873,109.8c-4.73,0-7-2.81-8.42-6.36-2-5-6.94-9.47-3.25-15.62,1.05-1.75,2.87-2.7,4.68-3.6,8.33-4.1,16.61-8.28,25-12.33,5.72-2.78,9.86-1.3,12.74,4.32,7.61,14.9,7.27,15.91-7.61,23.18-6.1,3-12.17,6-18.27,9C876.14,109.21,874.5,110.07,873,109.8Z"></path><path class="cls-1" d="M431.09,77.56c4.11.18,9.61-1.18,12,1,2.78,2.49.82,8.11.89,12.37.15,8,0,8-8.1,8-4.81,0-9.63-.1-14.45,0-2.59.08-4-.44-3.85-3.49.23-4.81.2-9.64,0-14.44-.1-2.78,1.1-3.38,3.55-3.26,3.31.16,6.64,0,10,0Z"></path></g></g></svg>