<svg xmlns="http://www.w3.org/2000/svg" viewBox="0 0 320.64 87.19"><defs><style>.cls-1{fill:#101179;}.cls-2{fill:#333;}.cls-3{fill:#fa0;}.cls-4{fill:#53ae39;}.cls-5{fill:#100f7a;}.cls-6{fill:#fd5127;}.cls-7{fill:#fff;}</style></defs><g id="Layer_2" data-name="Layer 2"><g id="Layer_1-2" data-name="Layer 1"><path id="Path_3566" data-name="Path 3566" class="cls-1" d="M87.44,40.46v-5.6h-6.3v5.6h-2.8V27.16h2.8v5.2h6.3v-5.2h2.9v13.3Z"></path><path id="Path_3567" data-name="Path 3567" class="cls-1" d="M92.24,33.79a7,7,0,0,1,13.9,0,7,7,0,0,1-13.9,0Zm11,0c0-2.5-1.6-4.4-4-4.4a4.12,4.12,0,0,0-4.1,4.15v.25a4.11,4.11,0,0,0,8.2.57,2.71,2.71,0,0,0,0-.57Z"></path><path id="Path_3568" data-name="Path 3568" class="cls-1" d="M119.84,40.44v-9.6l-3.8,9.6h-1.2l-3.8-9.6v9.6h-2.8V27.14h4l3.2,8.3,3.2-8.3h4v13.3Z"></path><path id="Path_3569" data-name="Path 3569" class="cls-1" d="M125.34,40.44V27.14h9.4v2.5h-6.6v2.8h6.5v2.5h-6.5v3h6.6v2.5Z"></path><path id="Path_3570" data-name="Path 3570" class="cls-1" d="M153.34,40.39l-2.6-4.7h-2.1v4.7h-2.8V27.09H152a4.22,4.22,0,0,1,4.5,3.89,2.81,2.81,0,0,1,0,.41,3.89,3.89,0,0,1-2.9,4l3,5.1Zm.3-9.1a1.8,1.8,0,0,0-1.78-1.81h-3.22v3.6h3a1.8,1.8,0,0,0,2-1.59A.74.74,0,0,0,153.64,31.29Z"></path><path id="Path_3571" data-name="Path 3571" class="cls-1" d="M158.64,40.39V27.09h9.5v2.5h-6.6v2.8H168v2.5h-6.5v3h6.6v2.5Z"></path><path id="Path_3572" data-name="Path 3572" class="cls-1" d="M170.34,40.39V27.09h6.2a4.3,4.3,0,1,1,0,8.6h-3.4v4.8Zm7.8-9a1.8,1.8,0,0,0-1.78-1.81h-3.22v3.6h3a1.8,1.8,0,0,0,2-1.59A.74.74,0,0,0,178.14,31.39Z"></path><path id="Path_3573" data-name="Path 3573" class="cls-1" d="M190.54,40.39l-.8-2.3H184l-.8,2.3H180l5.1-13.3h3.6l5.1,13.3Zm-3.7-10.5-2.1,5.7h4.2Z"></path><path id="Path_3574" data-name="Path 3574" class="cls-1" d="M195,40.39V27.09h2.8v13.3Z"></path><path id="Path_3575" data-name="Path 3575" class="cls-1" d="M208,40.39l-2.6-4.7h-2.1v4.7h-2.8V27.09h6.2a4.22,4.22,0,0,1,4.5,3.89,2.81,2.81,0,0,1,0,.41,3.89,3.89,0,0,1-2.9,4l3,5.1Zm.3-9.1a1.8,1.8,0,0,0-1.78-1.81h-3.22v3.6h3a1.8,1.8,0,0,0,2-1.59A.74.74,0,0,0,208.34,31.29Z"></path><path id="Path_3576" data-name="Path 3576" class="cls-1" d="M219.49,38.49l1.6-2.2a5.9,5.9,0,0,0,4.2,1.8c1.6,0,2.3-.7,2.3-1.5,0-2.3-7.7-.7-7.7-5.7,0-2.2,1.9-4.1,5.1-4.1a7.41,7.41,0,0,1,5.2,1.9l-1.6,2.1a5.64,5.64,0,0,0-3.8-1.4c-1.2,0-1.9.5-1.9,1.3s7.7.7,7.7,5.7c0,2.4-1.8,4.3-5.3,4.3A7.73,7.73,0,0,1,219.49,38.49Z"></path><path id="Path_3577" data-name="Path 3577" class="cls-1" d="M232.49,40.39V27.09h9.4v2.5h-6.6v2.8h6.5v2.5h-6.5v3h6.6v2.5Z"></path><path id="Path_3578" data-name="Path 3578" class="cls-1" d="M251.69,40.39l-2.6-4.7H247v4.7h-2.8V27.09h6.2A4.19,4.19,0,0,1,254.88,31a2.77,2.77,0,0,1,0,.41,3.89,3.89,0,0,1-2.9,4l3,5.1Zm.3-9.1a1.79,1.79,0,0,0-1.79-1.81H247v3.6h3a1.81,1.81,0,0,0,1.9-1.7v-.1Z"></path><path id="Path_3579" data-name="Path 3579" class="cls-1" d="M260.49,40.39l-5.1-13.3h3.2l3.7,10.2,3.7-10.2h3.2l-5.1,13.3Z"></path><path id="Path_3580" data-name="Path 3580" class="cls-1" d="M270.49,40.39V27.09h2.8v13.3Z"></path><path id="Path_3581" data-name="Path 3581" class="cls-1" d="M275.29,33.69A6.8,6.8,0,0,1,282,26.78h.41a6.08,6.08,0,0,1,5.6,3.3l-2.5,1.2a3.6,3.6,0,0,0-3.1-1.9,4.4,4.4,0,1,0,0,8.8,3.6,3.6,0,0,0,3.1-1.9l2.4,1.2a6.1,6.1,0,0,1-5.6,3.3,6.8,6.8,0,0,1-7-6.59,4.34,4.34,0,0,1,0-.51Z"></path><path id="Path_3582" data-name="Path 3582" class="cls-1" d="M289.69,40.39V27.09h9.4v2.5h-6.6v2.8H299v2.5h-6.5v3h6.6v2.5Z"></path><path id="Path_3583" data-name="Path 3583" class="cls-1" d="M300.39,38.49l1.6-2.2a5.9,5.9,0,0,0,4.2,1.8c1.6,0,2.3-.7,2.3-1.5,0-2.3-7.7-.7-7.7-5.7,0-2.2,1.9-4.1,5.1-4.1a7.41,7.41,0,0,1,5.2,1.9l-1.6,2.1a5.67,5.67,0,0,0-3.9-1.5c-1.2,0-1.9.5-1.9,1.3s7.7.7,7.7,5.7c0,2.4-1.8,4.3-5.3,4.3A7.7,7.7,0,0,1,300.39,38.49Z"></path><path id="Path_3584" data-name="Path 3584" class="cls-2" d="M83.24,59.75H82l-2.3-3.3h-.4v3.3h-1v-7.9h1.2a4.2,4.2,0,0,1,2.1.4,2.25,2.25,0,0,1-.9,4.1Zm-3.9-4.2h.3c1,0,2.1-.2,2.1-1.4s-1.2-1.4-2.2-1.4h-.3Z"></path><path id="Path_3585" data-name="Path 3585" class="cls-2" d="M87.24,51.85h4.3v.9h-3.4V55h3.2v.9h-3.2v3h3.3v.9h-4.2Z"></path><path id="Path_3586" data-name="Path 3586" class="cls-2" d="M99.34,53.35a1.39,1.39,0,0,0-1.3-.7,1.19,1.19,0,0,0-1.29,1.09h0c0,.6.6.9,1.1,1.1l.6.2a2.56,2.56,0,0,1,2,2.4A2.39,2.39,0,0,1,98.15,60h-.21a2.5,2.5,0,0,1-2.4-2.2l1-.2a1.5,1.5,0,0,0,3,0c0-.9-.7-1.2-1.4-1.5l-.5-.2c-.9-.4-1.7-.9-1.7-2a2.21,2.21,0,0,1,2.3-2,2.3,2.3,0,0,1,2,1.2Z"></path><path id="Path_3587" data-name="Path 3587" class="cls-2" d="M112.34,55.85a4.15,4.15,0,1,1-4.15-4.15,4.14,4.14,0,0,1,4.15,4.15Zm-1,0a3.2,3.2,0,1,0-6.3-1.12,3.51,3.51,0,0,0,0,1.12,3.2,3.2,0,1,0,6.3,1.13A3.07,3.07,0,0,0,111.34,55.85Z"></path><path id="Path_3588" data-name="Path 3588" class="cls-2" d="M117.34,51.85v4.7c0,1.3.4,2.5,1.9,2.5s1.9-1.2,1.9-2.5v-4.7h1v5a2.9,2.9,0,0,1-5.8,0v-5Z"></path><path id="Path_3589" data-name="Path 3589" class="cls-2" d="M131.54,59.75h-1.2l-2.3-3.3h-.4v3.3h-1v-7.9h1.2a4.2,4.2,0,0,1,2.1.4,2.25,2.25,0,0,1-.9,4.1Zm-3.9-4.2h.3c1,0,2.1-.2,2.1-1.4s-1.2-1.4-2.2-1.4h-.3Z"></path><path id="Path_3590" data-name="Path 3590" class="cls-2" d="M141.24,53.35a3.24,3.24,0,1,0,0,4.9v1.2a4.19,4.19,0,0,1-2.1.6A4.1,4.1,0,0,1,135,56h0a4.21,4.21,0,0,1,4.2-4.2,3.86,3.86,0,0,1,2,.5Z"></path><path id="Path_3591" data-name="Path 3591" class="cls-2" d="M145.54,51.85h4.3v.9h-3.3V55h3.2v.9h-3.2v3h3.3v.9h-4.3Z"></path><path id="Path_3592" data-name="Path 3592" class="cls-2" d="M157.74,53.35a1.39,1.39,0,0,0-1.3-.7,1.19,1.19,0,0,0-1.29,1.09h0c0,.6.6.9,1.1,1.1l.6.2a2.56,2.56,0,0,1,2,2.4,2.39,2.39,0,0,1-2.29,2.5h-.21a2.5,2.5,0,0,1-2.4-2.2l1-.2a1.5,1.5,0,1,0,3,0c0-.9-.7-1.2-1.4-1.5l-.5-.2c-.9-.4-1.7-.9-1.7-2a2.21,2.21,0,0,1,2.3-2,2.3,2.3,0,0,1,2,1.2Z"></path><path id="Path_3593" data-name="Path 3593" class="cls-2" d="M170.14,52.75V55h2.8v.9h-2.8v3.9h-1v-7.9h3.8v.9Z"></path><path id="Path_3594" data-name="Path 3594" class="cls-2" d="M185,55.85a4.15,4.15,0,1,1-4.15-4.15h0A4.15,4.15,0,0,1,185,55.85Zm-1,0a3.2,3.2,0,1,0-6.3-1.12,3.51,3.51,0,0,0,0,1.12A3.2,3.2,0,1,0,184,57,3.07,3.07,0,0,0,184,55.85Z"></path><path id="Path_3595" data-name="Path 3595" class="cls-2" d="M194,59.75h-1.2l-2.3-3.3h-.4v3.3h-1v-7.9h1.2a4.2,4.2,0,0,1,2.1.4,2.25,2.25,0,0,1-.9,4.1Zm-3.9-4.2h.3c1,0,2.1-.2,2.1-1.4s-1.2-1.4-2.2-1.4H190Z"></path><path id="Path_3596" data-name="Path 3596" class="cls-2" d="M209.14,55.86v-3.2h1v7.9h-1v-3.8h-3.8v3.8h-1v-7.9h1v3.2Z"></path><path id="Path_3597" data-name="Path 3597" class="cls-2" d="M223.94,56.66a4.15,4.15,0,1,1-4.15-4.15,4.15,4.15,0,0,1,4.15,4.15Zm-1,0a3.2,3.2,0,1,0-6.3-1.13,3.57,3.57,0,0,0,0,1.13,3.2,3.2,0,0,0,6.3,1.12A3,3,0,0,0,222.94,56.66Z"></path><path id="Path_3598" data-name="Path 3598" class="cls-2" d="M231,55.36h0l-.9,5.2h-1l1.6-8.3,2.7,6.2,2.7-6.2,1.6,8.3h-1l-.9-5.2h0l-2.5,5.4Z"></path><path id="Path_3599" data-name="Path 3599" class="cls-2" d="M243.34,52.66h4.3v.9h-3.3v2.2h3.2v.9h-3.2v3h3.3v.9h-4.3Z"></path><path id="Path_3600" data-name="Path 3600" class="cls-2" d="M261.24,56.66a4.15,4.15,0,1,1-4.15-4.15h0A4.15,4.15,0,0,1,261.24,56.66Zm-1,0a3.2,3.2,0,1,0-6.3-1.13,3.57,3.57,0,0,0,0,1.13,3.2,3.2,0,1,0,6.3,1.12A3,3,0,0,0,260.24,56.66Z"></path><path id="Path_3601" data-name="Path 3601" class="cls-2" d="M269.34,58.36l2.2-5.8,2.2,5.8,2.2-5.7H277l-3.3,8.2-2.2-5.8-2.2,5.9-3.3-8.2h1.1Z"></path><path id="Path_3602" data-name="Path 3602" class="cls-2" d="M282.34,52.26l5.9,6.2v-5.8h1v8.2l-5.9-6.2v5.9h-1Z"></path><path id="Path_3603" data-name="Path 3603" class="cls-2" d="M295.44,52.66h4.3v.9h-3.3v2.2h3.2v.9h-3.2v3h3.3v.9h-4.3Z"></path><path id="Path_3604" data-name="Path 3604" class="cls-2" d="M310.54,60.56h-1.2l-2.3-3.3h-.4v3.3h-1v-7.9h1.2a4.1,4.1,0,0,1,2.1.4,2.25,2.25,0,0,1-.9,4.1Zm-3.9-4.2h.3c1,0,2.1-.2,2.1-1.4s-1.2-1.4-2.2-1.4h-.3Z"></path><path id="Path_3605" data-name="Path 3605" class="cls-2" d="M319.54,54.16a1.39,1.39,0,0,0-1.3-.7,1.2,1.2,0,0,0-1.3,1.09h0c0,.6.6.9,1.1,1.1l.6.2a2.55,2.55,0,0,1,2,2.4,2.4,2.4,0,0,1-2.29,2.5h-.21a2.51,2.51,0,0,1-2.4-2.2l1-.2a1.5,1.5,0,1,0,3,0c0-.9-.7-1.2-1.4-1.5l-.5-.2c-.9-.4-1.7-.9-1.7-2a2.2,2.2,0,0,1,2.3-2,2.27,2.27,0,0,1,2,1.2Z"></path><path id="Path_3606" data-name="Path 3606" class="cls-3" d="M14.14,37.08,22.77,45V38.26a1.35,1.35,0,0,1,1.36-1.35h3.21a1.35,1.35,0,0,1,1.36,1.35v1.86L46.22,23.79a2.45,2.45,0,0,1,3.3,0l6.35,5.75V24.72a.92.92,0,0,1,.84-1h2.38l.5.17V3.64A3.64,3.64,0,0,0,56,0H3.64A3.64,3.64,0,0,0,0,3.64V46l9.48-8.89A3.38,3.38,0,0,1,14.14,37.08Z"></path><path id="Path_3607" data-name="Path 3607" class="cls-4" d="M47.91,29,28.78,46.73l-.17.17v3.47l4.57,4.15,10-9.32a4.92,4.92,0,0,1,6.69,0l9.73,9V39.7Zm1.44,13H46.73a1.61,1.61,0,0,1-1.61-1.61h0V37.67a1.61,1.61,0,0,1,1.61-1.61h2.71A1.61,1.61,0,0,1,51,37.67h0v2.71A1.61,1.61,0,0,1,49.44,42h-.09Z"></path><path id="Path_3608" data-name="Path 3608" class="cls-5" d="M12.61,87.19H56a3.64,3.64,0,0,0,3.64-3.64h0v-16l-13-11.93Zm40-14.14v5.42a3.13,3.13,0,0,1-3.13,3.13H44.1A3.13,3.13,0,0,1,41,78.47V73.05a3.13,3.13,0,0,1,3.13-3.13h5.42A3.13,3.13,0,0,1,52.65,73.05Z"></path><path id="Path_3609" data-name="Path 3609" class="cls-6" d="M28.19,59.26l-16.34-15L0,55.28V83.55a3.57,3.57,0,0,0,.51,1.86,4.85,4.85,0,0,1,1.1-1.52ZM8,56.29a2.2,2.2,0,0,1,2.2-2.2h3.72a2.2,2.2,0,0,1,2.2,2.2V60a2.2,2.2,0,0,1-2.2,2.2H10.16A2.2,2.2,0,0,1,8,60Z"></path><path id="Path_3610" data-name="Path 3610" class="cls-7" d="M49.94,45.29a4.91,4.91,0,0,0-6.68,0l-10,9.31,3.89,3.56a3.44,3.44,0,0,1-4.65,5.07l-4.32-4L1.61,83.89a4.85,4.85,0,0,0-1.1,1.52,3.64,3.64,0,0,0,3.13,1.78h9l34-31.57,13,11.93V54.18Z"></path><rect id="Rectangle_584" data-name="Rectangle 584" class="cls-7" x="40.97" y="69.84" width="11.77" height="11.75" rx="3.13"></rect><path id="Path_3611" data-name="Path 3611" class="cls-7" d="M28.19,59.26l5-4.66-4.57-4.15V46.9a2.47,2.47,0,0,1-3.16-3.79l0,0,3.13-3V38.26a1.34,1.34,0,0,0-1.35-1.35H24.13a1.35,1.35,0,0,0-1.36,1.35V45l-8.63-7.87a3.37,3.37,0,0,0-4.57,0L0,46v9.31l11.85-11Z"></path><path id="Path_3612" data-name="Path 3612" class="cls-7" d="M32.51,63.15a3.44,3.44,0,1,0,4.71-5l-.06-.06-3.89-3.55-5.08,4.74Z"></path><rect id="Rectangle_585" data-name="Rectangle 585" class="cls-7" x="7.96" y="54.09" width="8.13" height="8.11" rx="2.2"></rect><path id="Path_3613" data-name="Path 3613" class="cls-7" d="M56.8,23.7a.93.93,0,0,0-.93.93v4.91l-6.26-5.75a2.47,2.47,0,0,0-3.31,0L28.61,40.21V46.9l.17-.17L47.91,29,59.59,39.7V23.87l-.5-.17Z"></path><path id="Path_3614" data-name="Path 3614" class="cls-7" d="M25.48,43.09a2.47,2.47,0,0,0,3.13,3.81V40.21Z"></path><rect id="Rectangle_586" data-name="Rectangle 586" class="cls-7" x="45.12" y="36.15" width="5.84" height="5.87" rx="1.61"></rect></g></g></svg>