<svg xmlns="http://www.w3.org/2000/svg" viewBox="0 0 600.56 192.36"><defs><style>.cls-1,.cls-2{fill:#fff;}.cls-2{fill-rule:evenodd;}.cls-3{fill:#00b2e2;}.cls-4,.cls-5{fill:none;stroke-linecap:round;stroke-miterlimit:3.86;stroke-width:1.12px;}.cls-4{stroke:#00b2e2;}.cls-5{stroke:#fff;}.cls-6{fill:#00a78a;}</style></defs><g id="Layer_2" data-name="Layer 2"><g id="Layer_1-2" data-name="Layer 1"><path class="cls-1" d="M212.76,111.7h4.7l3.3,10.4,3.4-10.4h4.6L223,128.1v9.1h-4.4v-9.1Z"></path><path class="cls-2" d="M228.46,125.7a14.38,14.38,0,0,1,1.2-6.6c.8-1.5,2.5-2.3,5.1-2.3s4.3.8,5.1,2.3a14.38,14.38,0,0,1,1.2,6.6v2.9c0,3.6-.5,6.1-1.6,7.2a5.91,5.91,0,0,1-4.7,1.7c-2.6,0-4.3-.8-5.1-2.3a14.84,14.84,0,0,1-1.3-6.6v-2.9Zm8.4-.6v-1a5.4,5.4,0,0,0-.4-2.5c-.2-.5-.7-.8-1.6-.8a1.52,1.52,0,0,0-1.6.9,6.16,6.16,0,0,0-.4,2.6V130a7.65,7.65,0,0,0,.3,2.5c.2.5.8.8,1.7.8a1.59,1.59,0,0,0,1.7-1.1,13.11,13.11,0,0,0,.3-3.3Z"></path><path class="cls-2" d="M248.16,117.1v13.2a10.31,10.31,0,0,0,.2,2c.1.5.3.9.6,1a1.69,1.69,0,0,0,1,.3,2.66,2.66,0,0,0,1.2-.3,1.79,1.79,0,0,0,.7-1.3,15,15,0,0,0,.2-2.2V117.2h4.2v20h-4.2v-1.5a1.44,1.44,0,0,1-1,1.3,5.45,5.45,0,0,1-2.2.5,6.34,6.34,0,0,1-2.9-.8,3.74,3.74,0,0,1-1.7-2.4,6.8,6.8,0,0,1-.2-1.5,10.87,10.87,0,0,1-.1-1.8V117.3h4.2Z"></path><path class="cls-2" d="M263.56,137.2h-4.3v-20h4.1l-.1,1.8c-.2-.6-.2-1,.2-1.3a3.87,3.87,0,0,1,2.2-.4h2.2v3.9h-4.3Z"></path><path class="cls-1" d="M287,127h-3.5v-4.1H291v14.3l-3.1-2.3a4.33,4.33,0,0,1-1.3,1.6,3.31,3.31,0,0,1-2,.9l-1.3.1a7.18,7.18,0,0,1-1.7-.2,12,12,0,0,1-2.2-1,4.78,4.78,0,0,1-2.2-2.6,10.88,10.88,0,0,1-.7-4.2V120a16.94,16.94,0,0,1,.4-4.3,4.76,4.76,0,0,1,1.8-2.6,9.18,9.18,0,0,1,2.8-1.4,5,5,0,0,1,1.2-.2,5.28,5.28,0,0,1,1.2-.1,12.37,12.37,0,0,1,3.7.8,4.09,4.09,0,0,1,2.8,2.9c.2.7.3,1.3.4,1.7a5.74,5.74,0,0,1,.1,1.2l.1,2.3h-4.3a10.68,10.68,0,0,0-.3-2.9,1.81,1.81,0,0,0-1.1-1.4,3.17,3.17,0,0,0-1.6-.4,2.86,2.86,0,0,0-1.7.4,2.43,2.43,0,0,0-1,1.4,8,8,0,0,0-.3,2.3v9.1a15.74,15.74,0,0,0,.2,2.5,2.26,2.26,0,0,0,1,1.5,3.32,3.32,0,0,0,2,.5,3.36,3.36,0,0,0,1.5-.4,1.66,1.66,0,0,0,1.1-1.5,16.83,16.83,0,0,0,.2-2V127Z"></path><path class="cls-2" d="M298.06,117.1v13.2a10.31,10.31,0,0,0,.2,2c.1.5.3.9.6,1a1.69,1.69,0,0,0,1,.3,2.66,2.66,0,0,0,1.2-.3,1.79,1.79,0,0,0,.7-1.3,15,15,0,0,0,.2-2.2V117.2h4.2v20H302v-1.5a1.44,1.44,0,0,1-1,1.3,5.45,5.45,0,0,1-2.2.5,6.34,6.34,0,0,1-2.9-.8,3.74,3.74,0,0,1-1.7-2.4,6.8,6.8,0,0,1-.2-1.5,10.87,10.87,0,0,1-.1-1.8V117.3h4.2Z"></path><path class="cls-2" d="M308.86,117.1h4.3v20.1h-4.3Zm2.3-5.7a2.41,2.41,0,0,1,1.8.7,2.06,2.06,0,0,1,.7,1.7,2.4,2.4,0,0,1-2.5,2.5,2.4,2.4,0,0,1-2.5-2.5,2.19,2.19,0,0,1,.7-1.7,2.67,2.67,0,0,1,1.8-.7"></path><path class="cls-2" d="M328.26,137.2h-4v-1.7l-.4.9a3.48,3.48,0,0,1-1.1.7,4.06,4.06,0,0,1-1.9.4,4.14,4.14,0,0,1-2.3-.6,4.09,4.09,0,0,1-2.1-2.7,14.87,14.87,0,0,1-.5-3.6v-6.7a11.46,11.46,0,0,1,1-5c.6-1.5,2-2.2,4.1-2.2a4.74,4.74,0,0,1,2.3.4,1.34,1.34,0,0,1,.8,1.4v-6.8h4.3v25.5Zm-6-16.6H322a1.09,1.09,0,0,0-.5.1,2.09,2.09,0,0,0-.6.4,3.58,3.58,0,0,0-.6,1.1,4.48,4.48,0,0,0-.1,1.1v6.4a14,14,0,0,0,.2,2.3,1.89,1.89,0,0,0,1,1.3,1.33,1.33,0,0,0,.8.3,1.61,1.61,0,0,0,.9-.3,1.53,1.53,0,0,0,.7-1c.1-.3.1-.5.2-.8s.1-.6.1-.9v-6.7a8.81,8.81,0,0,0-.2-1.7,2.26,2.26,0,0,0-.5-1.1l-.7-.4a1,1,0,0,1-.4-.1"></path><path class="cls-2" d="M335.26,127.9v2.2a10.07,10.07,0,0,0,.2,1.9,2.22,2.22,0,0,0,.8,1.3,2.2,2.2,0,0,0,1.3.4,1.27,1.27,0,0,0,.6-.1,1.7,1.7,0,0,0,.6-.6c.2-.3.4-.5.4-.8l.2-1.2v-1.6h4.1a12.15,12.15,0,0,1-.7,4.8,4.64,4.64,0,0,1-1.7,2.3,6.42,6.42,0,0,1-2,.8,11,11,0,0,1-1.8.2,7.12,7.12,0,0,1-1.6-.1c-.4-.1-.8-.2-1.1-.3a9.74,9.74,0,0,1-1.1-.5,4.5,4.5,0,0,1-2-2.6,13.3,13.3,0,0,1-.6-4.2v-5.4a16.59,16.59,0,0,1,.4-4.2,3.53,3.53,0,0,1,1.8-2.3,7.19,7.19,0,0,1,2.4-.9,13.55,13.55,0,0,1,2-.2,7.18,7.18,0,0,1,1.7.2,5.87,5.87,0,0,1,2,.8,4,4,0,0,1,1.7,2.4,15,15,0,0,1,.5,4v3.7Zm0-3.9h3.9v-.2a9,9,0,0,0-.2-1.8,1.78,1.78,0,0,0-.9-1.2,2.22,2.22,0,0,0-.9-.1,2,2,0,0,0-1.1.3,2.18,2.18,0,0,0-.7.9c0,.2-.1.4-.1.7s-.1.6-.1.9v.5Z"></path><path class="cls-1" d="M352.16,116v-4.2h13.4V116h-4.5v21.2h-4.3V116Z"></path><path class="cls-2" d="M365.06,125.7a14.38,14.38,0,0,1,1.2-6.6c.8-1.5,2.5-2.3,5.1-2.3s4.3.8,5.1,2.3a14.38,14.38,0,0,1,1.2,6.6v2.9c0,3.6-.5,6.1-1.6,7.2a5.91,5.91,0,0,1-4.7,1.7c-2.6,0-4.3-.8-5.1-2.3a14.84,14.84,0,0,1-1.3-6.6v-2.9Zm8.4-.6v-1a5.4,5.4,0,0,0-.4-2.5c-.2-.5-.7-.8-1.6-.8a1.52,1.52,0,0,0-1.6.9,6.16,6.16,0,0,0-.4,2.6V130a7.65,7.65,0,0,0,.3,2.5c.2.5.8.8,1.7.8a1.59,1.59,0,0,0,1.7-1.1,13.11,13.11,0,0,0,.3-3.3Z"></path><path class="cls-1" d="M387.46,111.7h4.3v25.4h-4.3Z"></path><path class="cls-1" d="M406.86,121.2v16h-4.3V124.1a12.48,12.48,0,0,0-.2-2.1c-.1-.4-.3-.8-.6-.9a1.5,1.5,0,0,0-1.8,0,1.77,1.77,0,0,0-.7,1.1,12.48,12.48,0,0,0-.2,2.1v12.9h-4.3v-20h4.1V119a2.31,2.31,0,0,1,1.3-1.7,7,7,0,0,1,2.7-.4,4.47,4.47,0,0,1,2.7,1.1,3.58,3.58,0,0,1,1.3,3.2"></path><path class="cls-1" d="M411,113.5h4.3v3.6h2.8V121h-2.8v10.1a11.52,11.52,0,0,0,.3,3,16.22,16.22,0,0,0,1.5,3.1h-4.5a9.46,9.46,0,0,1-1.3-2.7,3.73,3.73,0,0,1-.2-1.2,6.62,6.62,0,0,1-.1-1.5V121h-2.1v-3.9H411Z"></path><path class="cls-2" d="M424.06,127.9v2.2a10.07,10.07,0,0,0,.2,1.9,2.22,2.22,0,0,0,.8,1.3,2.2,2.2,0,0,0,1.3.4,1.27,1.27,0,0,0,.6-.1,1.7,1.7,0,0,0,.6-.6c.2-.3.4-.5.4-.8l.2-1.2v-1.6h4.1a12.15,12.15,0,0,1-.7,4.8,4.64,4.64,0,0,1-1.7,2.3,6.42,6.42,0,0,1-2,.8,11,11,0,0,1-1.8.2,7.12,7.12,0,0,1-1.6-.1c-.4-.1-.8-.2-1.1-.3a9.74,9.74,0,0,1-1.1-.5,4.5,4.5,0,0,1-2-2.6,13.3,13.3,0,0,1-.6-4.2v-5.4a16.59,16.59,0,0,1,.4-4.2,3.53,3.53,0,0,1,1.8-2.3,7.19,7.19,0,0,1,2.4-.9,13.55,13.55,0,0,1,2-.2,7.18,7.18,0,0,1,1.7.2,5.87,5.87,0,0,1,2,.8,4,4,0,0,1,1.7,2.4,15,15,0,0,1,.5,4v3.7Zm0-3.9H428v-.2a9,9,0,0,0-.2-1.8,1.78,1.78,0,0,0-.9-1.2,2.22,2.22,0,0,0-.9-.1,2,2,0,0,0-1.1.3,2.18,2.18,0,0,0-.7.9c0,.2-.1.4-.1.7s-.1.6-.1.9v.5Z"></path><path class="cls-1" d="M434.86,111.7h4.3v25.4h-4.3Z"></path><path class="cls-1" d="M442.06,111.7h4.3v25.4h-4.3Z"></path><path class="cls-2" d="M449.36,117.1h4.3v20.1h-4.3Zm2.2-5.7a2.41,2.41,0,0,1,1.8.7,2.06,2.06,0,0,1,.7,1.7,2.41,2.41,0,0,1-.7,1.8,2.5,2.5,0,0,1-4.3-1.8,2.19,2.19,0,0,1,.7-1.7,2.87,2.87,0,0,1,1.8-.7"></path><path class="cls-2" d="M459.46,142.9a2.88,2.88,0,0,1-2.1-.9,3.58,3.58,0,0,1-.9-2.4,2.88,2.88,0,0,1,.9-2.1,2.91,2.91,0,0,1,1.6-.9v.4a2.59,2.59,0,0,1-1.8-.9,3.51,3.51,0,0,1-.7-2.3,2.88,2.88,0,0,1,.9-2.1,2.41,2.41,0,0,1,1.6-.9v.3c-1.8-1.1-2.7-3-2.7-5.8V123a6.2,6.2,0,0,1,1.8-4.4,6.13,6.13,0,0,1,4.4-1.9,6.26,6.26,0,0,1,2.7.6,3,3,0,0,1,1.6,1.5l-.1-.1v-.4a2.13,2.13,0,0,1,.7-1.6,2.72,2.72,0,0,1,1.7-.6,1.8,1.8,0,0,1,1.5.7,2.52,2.52,0,0,1,.6,1.7,2,2,0,0,1-.7,1.6,2.61,2.61,0,0,1-1.7.7c-.5,0-.8-.2-.8-.5.2,0,.3.3.5.8a4.4,4.4,0,0,1,.2,1.6v2.7a6.71,6.71,0,0,1-1.6,4.7,5.62,5.62,0,0,1-4.6,1.9,5.31,5.31,0,0,1-1.4-.1,3.09,3.09,0,0,0-.8-.2c-.2-.1-.2-.2-.1-.3v2.1h5.1a10,10,0,0,1,3.2.4,3.45,3.45,0,0,1,2.1,1.4,4.41,4.41,0,0,1,.7,2.6,5.66,5.66,0,0,1-.7,2.9,3.67,3.67,0,0,1-1.9,1.5,9.19,9.19,0,0,1-3.7.6h-5.5Zm4.9-20a2,2,0,0,0-1.2-2,2,2,0,0,0-.8-.1,1.61,1.61,0,0,0-1.3.6,2.35,2.35,0,0,0-.5,1.6v3.1a2.54,2.54,0,0,0,.5,1.6,1.76,1.76,0,0,0,1.3.6,2,2,0,0,0,1.4-.6,2,2,0,0,0,.6-1.5Zm1.8,16.5a1,1,0,0,0,.9-.4,1.09,1.09,0,0,0,.4-.9,1.14,1.14,0,0,0-.3-.8,1.33,1.33,0,0,0-1-.3h-6.1v2.3h6.1Z"></path><path class="cls-2" d="M477.26,127.9v2.2a10.07,10.07,0,0,0,.2,1.9,2.22,2.22,0,0,0,.8,1.3,2.2,2.2,0,0,0,1.3.4,1.27,1.27,0,0,0,.6-.1,1.7,1.7,0,0,0,.6-.6c.2-.3.4-.5.4-.8l.2-1.2v-1.6h4.1a12.15,12.15,0,0,1-.7,4.8,4.64,4.64,0,0,1-1.7,2.3,6.42,6.42,0,0,1-2,.8,11,11,0,0,1-1.8.2,7.12,7.12,0,0,1-1.6-.1c-.4-.1-.8-.2-1.1-.3a9.74,9.74,0,0,1-1.1-.5,4.5,4.5,0,0,1-2-2.6,13.3,13.3,0,0,1-.6-4.2v-5.4a16.59,16.59,0,0,1,.4-4.2,3.53,3.53,0,0,1,1.8-2.3,7.19,7.19,0,0,1,2.4-.9,13.55,13.55,0,0,1,2-.2,7.18,7.18,0,0,1,1.7.2,5.87,5.87,0,0,1,2,.8,4,4,0,0,1,1.7,2.4,15,15,0,0,1,.5,4v3.7Zm0-3.9h3.9v-.2a9,9,0,0,0-.2-1.8,1.78,1.78,0,0,0-.9-1.2,2.22,2.22,0,0,0-.9-.1,2,2,0,0,0-1.1.3,2.18,2.18,0,0,0-.7.9c0,.2-.1.4-.1.7s-.1.6-.1.9v.5Z"></path><path class="cls-1" d="M500.06,121.2v16h-4.3V124.1a12.48,12.48,0,0,0-.2-2.1c-.1-.4-.3-.8-.6-.9a1.61,1.61,0,0,0-.9-.3,1.9,1.9,0,0,0-.9.3,1.77,1.77,0,0,0-.7,1.1,12.48,12.48,0,0,0-.2,2.1v12.9H488v-20h4.1V119a2.1,2.1,0,0,1,1.3-1.7,7,7,0,0,1,2.7-.4,4.47,4.47,0,0,1,2.7,1.1,3.58,3.58,0,0,1,1.3,3.2"></path><path class="cls-1" d="M504.26,113.5h4.3v3.6h2.8V121h-2.8v10.1a11.52,11.52,0,0,0,.3,3,16.22,16.22,0,0,0,1.5,3.1h-4.5a9.46,9.46,0,0,1-1.3-2.7,3.73,3.73,0,0,1-.2-1.2,6.62,6.62,0,0,1-.1-1.5V121h-2.1v-3.9h2.1Z"></path><path class="cls-1" d="M530.56,127h-3.5v-4.1h7.5v14.3l-3.1-2.3a4.33,4.33,0,0,1-1.3,1.6,3.31,3.31,0,0,1-2,.9l-1.3.1a7.18,7.18,0,0,1-1.7-.2,12,12,0,0,1-2.2-1,4.78,4.78,0,0,1-2.2-2.6,10.88,10.88,0,0,1-.7-4.2V120a16.94,16.94,0,0,1,.4-4.3,4.76,4.76,0,0,1,1.8-2.6,9.18,9.18,0,0,1,2.8-1.4,5,5,0,0,1,1.2-.2,5.28,5.28,0,0,1,1.2-.1,12.37,12.37,0,0,1,3.7.8,4.09,4.09,0,0,1,2.8,2.9c.2.7.3,1.3.4,1.7a5.74,5.74,0,0,1,.1,1.2l.1,2.3h-4.3a10.68,10.68,0,0,0-.3-2.9,1.81,1.81,0,0,0-1.1-1.4,3.17,3.17,0,0,0-1.6-.4,2.86,2.86,0,0,0-1.7.4,2.43,2.43,0,0,0-1,1.4,8,8,0,0,0-.3,2.3v9.1a15.74,15.74,0,0,0,.2,2.5,2.26,2.26,0,0,0,1,1.5,3.2,3.2,0,0,0,1.9.5,3.36,3.36,0,0,0,1.5-.4,1.66,1.66,0,0,0,1.1-1.5,16.83,16.83,0,0,0,.2-2V127Z"></path><path class="cls-2" d="M537.26,117.1h4.3v20.1h-4.3Zm2.2-5.7a2.41,2.41,0,0,1,1.8.7,2.06,2.06,0,0,1,.7,1.7,2.4,2.4,0,0,1-2.5,2.5,2.4,2.4,0,0,1-2.5-2.5,2.19,2.19,0,0,1,.7-1.7,2.87,2.87,0,0,1,1.8-.7"></path><path class="cls-1" d="M547.86,117.1l2.4,12.7,2.4-12.7H557l-4.4,20.1H548l-4.4-20.1Z"></path><path class="cls-2" d="M559,117.1h4.3v20.1H559Zm2.2-5.7a2.41,2.41,0,0,1,1.8.7,2.06,2.06,0,0,1,.7,1.7,2.4,2.4,0,0,1-2.5,2.5,2.4,2.4,0,0,1-2.5-2.5,2.19,2.19,0,0,1,.7-1.7,2.87,2.87,0,0,1,1.8-.7"></path><path class="cls-1" d="M578.26,121.2v16H574V124.1a12.48,12.48,0,0,0-.2-2.1c-.1-.4-.3-.8-.6-.9a1.61,1.61,0,0,0-.9-.3,1.9,1.9,0,0,0-.9.3,2.42,2.42,0,0,0-.8,1.1,12.48,12.48,0,0,0-.2,2.1v12.9h-4.3v-20h4.1V119a2.31,2.31,0,0,1,1.3-1.7,7,7,0,0,1,2.7-.4,4.47,4.47,0,0,1,2.7,1.1,3.62,3.62,0,0,1,1.4,3.2"></path><path class="cls-2" d="M583.86,142.9a2.88,2.88,0,0,1-2.1-.9,3.58,3.58,0,0,1-.9-2.4,2.88,2.88,0,0,1,.9-2.1,2.91,2.91,0,0,1,1.6-.9v.4a2.59,2.59,0,0,1-1.8-.9,3.51,3.51,0,0,1-.7-2.3,2.88,2.88,0,0,1,.9-2.1,2.41,2.41,0,0,1,1.6-.9v.3c-1.8-1.1-2.7-3-2.7-5.8V123a6.2,6.2,0,0,1,1.8-4.4,6.13,6.13,0,0,1,4.4-1.9,6.26,6.26,0,0,1,2.7.6,3,3,0,0,1,1.6,1.5l-.1-.1v-.4a2.13,2.13,0,0,1,.7-1.6,2.72,2.72,0,0,1,1.7-.6,1.8,1.8,0,0,1,1.5.7,2.52,2.52,0,0,1,.6,1.7,2,2,0,0,1-.7,1.6,2.61,2.61,0,0,1-1.7.7c-.5,0-.8-.2-.8-.5.2,0,.3.3.5.8a4.4,4.4,0,0,1,.2,1.6v2.7a6.71,6.71,0,0,1-1.6,4.7,5.62,5.62,0,0,1-4.6,1.9,5.31,5.31,0,0,1-1.4-.1,3.09,3.09,0,0,0-.8-.2c-.2-.1-.2-.2-.1-.3v2.1h5.1a9.6,9.6,0,0,1,3.2.4,3.45,3.45,0,0,1,2.1,1.4,4.41,4.41,0,0,1,.7,2.6,5.66,5.66,0,0,1-.7,2.9,3.67,3.67,0,0,1-1.9,1.5,9.19,9.19,0,0,1-3.7.6h-5.5Zm4.9-20a2,2,0,0,0-1.2-2,2,2,0,0,0-.8-.1,1.61,1.61,0,0,0-1.3.6,2.35,2.35,0,0,0-.5,1.6v3.1a2.54,2.54,0,0,0,.5,1.6,1.76,1.76,0,0,0,1.3.6,2,2,0,0,0,1.4-.6,2,2,0,0,0,.6-1.5Zm1.8,16.5a1.37,1.37,0,0,0,1.3-1.3,1.14,1.14,0,0,0-.3-.8,1.33,1.33,0,0,0-1-.3h-6v2.3h6Z"></path><path class="cls-1" d="M231.26,70h-6.9a38.92,38.92,0,0,0-.6-5.2,2.59,2.59,0,0,0-1.6-1.8,6.16,6.16,0,0,0-2.6-.6,5.07,5.07,0,0,0-2.8.7,4,4,0,0,0-1.5,2.2,12.48,12.48,0,0,0-.4,3.5V83.6a22.51,22.51,0,0,0,.3,4,3.38,3.38,0,0,0,1.6,2.5,5.71,5.71,0,0,0,3.2.9h.8l.9-.2a3.78,3.78,0,0,0,2.4-2.7,20,20,0,0,0,.3-3.2v-3h6.9V84c0,1.3-.1,2.5-.2,3.7a9.09,9.09,0,0,1-.6,2.5,7.63,7.63,0,0,1-3.2,4.9,14.1,14.1,0,0,1-4,1.9,14.87,14.87,0,0,1-3.6.5,12.91,12.91,0,0,1-6.2-1.4,9.64,9.64,0,0,1-4-4q-1.5-2.55-1.5-7.5V69.4a31,31,0,0,1,.6-6.8,6.94,6.94,0,0,1,3-4.2,13,13,0,0,1,4.3-2.1,17.71,17.71,0,0,1,4.1-.5,21.05,21.05,0,0,1,2.5.2,10.55,10.55,0,0,1,2.4.6,10.74,10.74,0,0,1,4.4,2.7,6.8,6.8,0,0,1,2,4.9l.2,2.2V70Z"></path><path class="cls-1" d="M235.26,56.2h6.9V71.9h8.9V56.2H258V96.9h-6.9V78.8h-8.9V96.9h-6.9Z"></path><path class="cls-2" d="M267.56,56.2h10.3l7.4,40.7h-7.1l-2-9.9h-6.8l-1.7,9.9h-7Zm2.8,24.4h4.9l-2.6-17.3Z"></path><path class="cls-2" d="M299.36,80.8h-4.3V96.9h-6.9V56.2h7.5a35.28,35.28,0,0,1,8,.8,6.67,6.67,0,0,1,4.5,3.2,17.87,17.87,0,0,1,1.2,2.4,17.23,17.23,0,0,1,.7,2.1,6.8,6.8,0,0,1,.3,1.9,12.75,12.75,0,0,1,.1,2,15,15,0,0,1-.5,3.7,6.58,6.58,0,0,1-1.6,3.1l-.7,1.4a1.85,1.85,0,0,1-.8.7,7.31,7.31,0,0,1,2.4,3.8,23.79,23.79,0,0,1,.6,5.9v4.5a22.68,22.68,0,0,0,.6,5h-7.4q-.15-1-.3-2.4a21.51,21.51,0,0,1-.2-2.3l-.2-4.5a14.34,14.34,0,0,0-.7-5,2.46,2.46,0,0,0-2.3-1.7m-4.3-6.9h4.4a3.45,3.45,0,0,0,1.8-.5,5.21,5.21,0,0,0,1.5-1.9,5.55,5.55,0,0,0,.6-2.8,6.85,6.85,0,0,0-.8-3.6,4.26,4.26,0,0,0-2.4-1.7,10.79,10.79,0,0,0-1.9-.3,12.75,12.75,0,0,0-1.9-.1h-1.3Z"></path><path class="cls-1" d="M315.06,56.2H322V96.9h-6.9Z"></path><path class="cls-1" d="M325.16,63V56.4h21.5V63h-7.2V97h-6.9V63Z"></path><path class="cls-1" d="M348.46,56.2h7.4l5.4,16.7,5.3-16.7H374l-9.3,26.2V96.9h-6.9V82.5Z"></path><path class="cls-1" d="M395.26,70.2V96.9h-6.9V56.2h7.7l9.5,26.7V56.2h6.9V96.9l-7.6.1Z"></path><path class="cls-2" d="M422.16,56.2h10.3l7.4,40.7h-7.1l-2-9.9H424l-1.7,9.9h-7ZM425,80.6h4.9l-2.6-17.3Z"></path><path class="cls-1" d="M438.36,56.2h7.5l5.4,30.7,5.2-30.7h7.3L456,96.9h-9.3Z"></path><path class="cls-1" d="M466.76,56.2h6.9V96.9h-6.9Z"></path><path class="cls-1" d="M494.76,80.6h-5.5V74.1h12V97l-4.9-3.7a6.29,6.29,0,0,1-2,2.5,5.3,5.3,0,0,1-3.1,1.5l-2,.2a11.43,11.43,0,0,1-2.8-.3,27.57,27.57,0,0,1-3.5-1.6,7.93,7.93,0,0,1-3.5-4.1,17.65,17.65,0,0,1-1.1-6.8V69.5a31,31,0,0,1,.6-6.8,6.7,6.7,0,0,1,2.9-4.1,13.93,13.93,0,0,1,4.4-2.2c.6-.1,1.3-.3,2-.4a15,15,0,0,1,2-.2,16.65,16.65,0,0,1,5.9,1.3,6.9,6.9,0,0,1,4.5,4.6c.3,1.1.5,2,.7,2.8a7.14,7.14,0,0,1,.2,2l.1,3.6h-6.9a19.46,19.46,0,0,0-.4-4.7,3.19,3.19,0,0,0-1.7-2.3,6.16,6.16,0,0,0-2.6-.6,5.07,5.07,0,0,0-2.8.7,3.89,3.89,0,0,0-1.5,2.3,13.22,13.22,0,0,0-.4,3.6V83.7a22.94,22.94,0,0,0,.3,4.1,3.51,3.51,0,0,0,1.7,2.4,5.38,5.38,0,0,0,3.1.9,6.91,6.91,0,0,0,2.4-.6,2.79,2.79,0,0,0,1.7-2.4,20,20,0,0,0,.3-3.2V80.6Z"></path><path class="cls-2" d="M510.76,56.2h10.3l7.4,40.7h-7.1l-2-9.9h-6.8l-1.7,9.9h-7Zm2.8,24.4h4.9l-2.6-17.3Z"></path><path class="cls-1" d="M527,63V56.4h21.5V63h-7.2V97h-6.9V63Z"></path><path class="cls-2" d="M573.76,82.9c0,4.5-.8,8-2.4,10.7s-4.7,3.9-9.3,3.9-7.8-1.3-9.4-4-2.3-6.2-2.3-10.6V70.2c0-5.7,1-9.6,3.1-11.5s4.9-2.9,8.6-2.9c4.6,0,7.7,1.3,9.3,3.8s2.4,6.1,2.4,10.6Zm-7-14.5a8.43,8.43,0,0,0-1-4.7c-.7-1-1.9-1.5-3.8-1.5s-3.1.5-3.8,1.4a9.12,9.12,0,0,0-1,4.7V84.5a9,9,0,0,0,1,4.8c.6.9,1.9,1.4,3.8,1.4s3-.5,3.7-1.5a8.43,8.43,0,0,0,1-4.7V68.4Z"></path><path class="cls-2" d="M589.36,80.8h-4.3V96.9h-6.9V56.2h7.5a35.28,35.28,0,0,1,8,.8,7.11,7.11,0,0,1,4.6,3.2,17.87,17.87,0,0,1,1.2,2.4c.3.8.5,1.4.7,2.1a6.8,6.8,0,0,1,.3,1.9,12.75,12.75,0,0,1,.1,2,15,15,0,0,1-.5,3.7,6.58,6.58,0,0,1-1.6,3.1l-.7,1.4a1.85,1.85,0,0,1-.8.7,7.31,7.31,0,0,1,2.4,3.8,23.79,23.79,0,0,1,.6,5.9v4.5a22.68,22.68,0,0,0,.6,5h-7.5q-.15-1-.3-2.4a21.51,21.51,0,0,1-.2-2.3l-.2-4.5a14.34,14.34,0,0,0-.7-5,2.46,2.46,0,0,0-2.3-1.7m-4.3-6.9h4.4a3.45,3.45,0,0,0,1.8-.5,5.21,5.21,0,0,0,1.5-1.9,5.55,5.55,0,0,0,.6-2.8,6.85,6.85,0,0,0-.8-3.6,4.26,4.26,0,0,0-2.4-1.7,10.79,10.79,0,0,0-1.9-.3,12.75,12.75,0,0,0-1.9-.1h-1.3Z"></path><path class="cls-3" d="M94.36,0l-8.3,28.3,8.3-9.7,8.2,9.7Zm0,3.1,5.8,21.3-5.8-7.2Z"></path><path class="cls-4" d="M.56,98.4h187M94.16,2.6V191.8"></path><path class="cls-4" d="M157,98.4a62.75,62.75,0,1,1-62.8-62.8A62.76,62.76,0,0,1,157,98.4Z"></path><path class="cls-4" d="M154.46,98.4A60.25,60.25,0,1,1,94.16,38,60.3,60.3,0,0,1,154.46,98.4Z"></path><path class="cls-5" d="M94.26,98.4l-9-21.7,8.9-41Z"></path><path class="cls-6" d="M94.26,98.4l-9-21.7,8.9-41Z"></path><path class="cls-3" d="M94.26,98.4l9-21.6,35.4-22.7Z"></path><path class="cls-6" d="M94.26,98.4l21.6-8.9,41,8.9Z"></path><path class="cls-3" d="M94.26,98.4l21.5,9,22.7,35.4Z"></path><path class="cls-5" d="M94.26,98.4l8.8,21.6-8.9,41.1Z"></path><path class="cls-6" d="M94.26,98.4l8.8,21.6-8.9,41.1Z"></path><path class="cls-3" d="M94.26,98.4l-9,21.5-35.7,22.8Z"></path><path class="cls-6" d="M94.26,98.4l-21.7,8.9-41-9Z"></path><path class="cls-3" d="M93.56,97.7,72,88.7,49.36,54.2Z"></path><path class="cls-4" d="M138.76,53.6,116,88.9l-20.9,8.6,8.6-20.6Z"></path><path class="cls-4" d="M94.16,35.6l8.7,40.9-8.7,20.7-8.7-20.6Z"></path><path class="cls-4" d="M49.16,53.9l35.5,23,8.7,20.7L72.46,89Z"></path><path class="cls-4" d="M31.56,98.4l40.6-8.5L93,98.4,72.46,107Z"></path><path class="cls-4" d="M49.46,143l23.3-35.1,20.5-8.7-8.5,20.9Z"></path><path class="cls-4" d="M94.16,161.1l-8.5-40.8,8.5-20.8,8.6,20.9Z"></path><path class="cls-4" d="M139,143.2,103.66,120l-8.5-20.7,20.8,8.6Z"></path><path class="cls-4" d="M156.86,98.4l-40.7,8.6-20.9-8.6,21-8.6Z"></path></g></g></svg>